<?xml version="1.0" standalone="no"?>
<!DOCTYPE svg PUBLIC "-//W3C//DTD SVG 1.1//EN" "http://www.w3.org/Graphics/SVG/1.1/DTD/svg11.dtd" >
<!--
2013-9-30: Created.
-->
<svg>
<metadata>
Created by iconfont
</metadata>
<defs>

<font id="iconfont" horiz-adv-x="1024" >
  <font-face
    font-family="iconfont"
    font-weight="500"
    font-stretch="normal"
    units-per-em="1024"
    ascent="896"
    descent="-128"
  />
    <missing-glyph />
    
    <glyph glyph-name="tubiaozhizuomoban-145" unicode="&#58931;" d="M820.53 769.89h-98.34V808.95a21.39 21.39 0 0 1-42.77 0v-39.06H337.21V808.95a21.39 21.39 0 0 1-42.78 0v-39.06H165a64.23 64.23 0 0 1-64.17-64.17v-699.93A64.23 64.23 0 0 1 165-58.38h655.53a64.23 64.23 0 0 1 64.16 64.17V705.72a64.23 64.23 0 0 1-64.16 64.17z m21.39-764.1a21.4 21.4 0 0 0-21.39-21.39H165a21.4 21.4 0 0 0-21.39 21.39V705.72A21.41 21.41 0 0 0 165 727.11h129.43V692a21.39 21.39 0 1 1 42.78 0v35.11h342.21V692a21.39 21.39 0 1 1 42.77 0v35.11h98.34a21.41 21.41 0 0 0 21.39-21.39zM676 544.75H438.38c-0.74 0-1.36-0.35-2.09-0.42a55.37 55.37 0 0 1-103 0c-0.69 0.06-1.28 0.4-2 0.4h-21.8a21.39 21.39 0 0 1 0-42.78h21.77a21.58 21.58 0 0 1 2.29 0.46 55.53 55.53 0 0 1 102.43 0 21.68 21.68 0 0 1 2.4-0.48H676a21.39 21.39 0 0 1 0 42.78z m-291.23-33.61a12.75 12.75 0 1 0 12.76 12.74 12.76 12.76 0 0 0-12.76-12.74zM676 235.56H438.38a18.86 18.86 0 0 1-2.09-0.42 55.37 55.37 0 0 1-103 0 18.94 18.94 0 0 1-2 0.4h-21.8a21.39 21.39 0 1 1 0-42.77h21.77a22.06 22.06 0 0 1 2.29 0.45 55.52 55.52 0 0 1 102.44 0 19.08 19.08 0 0 1 2.39-0.48H676a21.39 21.39 0 1 1 0 42.77z m-291.23-33.63a12.77 12.77 0 1 0 12.76 12.77 12.78 12.78 0 0 0-12.76-12.77zM676 390.17H545.33a21.08 21.08 0 0 1-2.1-0.42 55.37 55.37 0 0 1-103 0c-0.69 0.06-1.28 0.4-2 0.4H309.49a21.39 21.39 0 1 1 0-42.78H438.2a22.09 22.09 0 0 1 2.29 0.46 55.52 55.52 0 0 1 102.44 0 20.8 20.8 0 0 1 2.4-0.48H676a21.39 21.39 0 0 1 0 42.78z m-184.3-33.63a12.76 12.76 0 1 0 12.76 12.76 12.77 12.77 0 0 0-12.75-12.76z"  horiz-adv-x="1024" />

    
    <glyph glyph-name="shengchanjianshi" unicode="&#58887;" d="M570.202768 474.675516a198.996633 198.996633 0 1 1-198.996633-198.996632 198.996633 198.996633 0 0 1 198.996633 198.996632z m-341.137085 0a142.140452 142.140452 0 1 0 142.140452-142.140452 142.140452 142.140452 0 0 0-142.140452 142.140452zM371.206135 745.310937m-42.642135 0a42.642136 42.642136 0 1 1 85.284271 0 42.642136 42.642136 0 1 1-85.284271 0ZM669.701084 42.568542h-77.608686l-81.58862 142.140452A369.565175 369.565175 0 1 1 229.065683 184.708994l-81.8729-142.140452H72.711186a28.42809 28.42809 0 0 1 0-56.85618h596.989898a28.42809 28.42809 0 0 1 0 56.85618zM58.497141 525.846079a312.708994 312.708994 0 1 0 312.708994-312.708994A312.708994 312.708994 0 0 0 58.497141 525.846079z m224.866195-362.742433a21.036787 21.036787 0 0 1 0 3.979932A363.879557 363.879557 0 0 1 371.206135 156.280904a359.331063 359.331063 0 0 1 85.284271 10.234113v-3.411371L526.423509 42.568542h-312.708995z"  horiz-adv-x="1153" />

    
    <glyph glyph-name="shengchanrenwu" unicode="&#58889;" d="M864.42794 379.448889a28.444444 28.444444 0 0 1-40.391111 0l-188.586667-188.302222-131.128889 130.844444a28.444444 28.444444 0 1 1-39.537778-40.106667l151.04-151.04a28.444444 28.444444 0 0 1 40.106667 0l208.497778 208.497778a28.444444 28.444444 0 0 1 0 40.106667zM147.912384 590.506667h363.235556v-56.888889H147.912384zM142.223495 396.231111h246.613334v-56.888889H142.223495zM142.223495 202.24h165.831112v-56.888889H142.223495zM725.334607 520.533333h56.888888V795.875556a34.417778 34.417778 0 0 1-32.995555 34.417777h-99.84v-56.888889h75.946667zM564.054607 723.057778a28.444444 28.444444 0 0 1 28.444444 28.444444V867.555556a28.444444 28.444444 0 1 1-56.888889 0v-116.053334a28.444444 28.444444 0 0 1 28.444445-28.444444zM56.890162 773.404444h75.946667v56.888889H33.850162A34.133333 34.133333 0 0 1 0.001273 795.875556v-780.231112a34.133333 34.133333 0 0 1 33.848889-34.417777H469.334607v56.888889H56.890162zM303.503495 830.293333h175.502223v-56.888889h-175.502223zM218.170162 723.057778a28.444444 28.444444 0 0 1 28.444445 28.444444V867.555556a28.444444 28.444444 0 0 1-56.888889 0v-116.053334a28.444444 28.444444 0 0 1 28.444444-28.444444z"  horiz-adv-x="1145" />

    
    <glyph glyph-name="shengchanqushi" unicode="&#58890;" d="M881.777778 66.56h-64.568889V434.062222h-56.888889v-367.502222h-160.426667v262.542222h-56.888889v-262.542222h-175.786666V389.12h-56.888889v-322.56H149.902222v232.675556h-56.888889v-232.675556H28.444444a28.444444 28.444444 0 0 1 0-56.888889h853.333334a28.444444 28.444444 0 0 1 0 56.888889zM58.311111 393.955556a28.444444 28.444444 0 0 1 20.48 9.102222l256 269.368889 224.995556-151.04a28.444444 28.444444 0 0 1 37.546666 5.404444l227.555556 269.937778v-71.68a28.444444 28.444444 0 0 1 56.888889 0v142.222222a28.444444 28.444444 0 0 1-28.444445 28.444445h-148.764444a28.444444 28.444444 0 0 1 0-56.888889h80.213333l-214.755555-256-223.857778 150.186666a28.444444 28.444444 0 0 1-36.408889-3.982222L37.546667 442.026667a28.444444 28.444444 0 0 1 0-40.106667 28.444444 28.444444 0 0 1 20.764444-7.964444z"  horiz-adv-x="1183" />

    
    <glyph glyph-name="shengchanbaojing" unicode="&#58891;" d="M581.772967 473.667499a22.452401 22.452401 0 0 1 0 3.694699v1.421038a20.17874 20.17874 0 0 1 0 5.684152 23.873439 23.873439 0 0 1-1.421038 4.83153 13.926173 13.926173 0 0 1-2.842076 4.263114 30.978629 30.978629 0 0 1-3.694699 4.831529s-2.273661 0-3.410491 1.989453l-5.115737 2.842076h-206.050514l125.335554 149.4932a28.42076 28.42076 0 0 1-3.410491 39.789065 28.42076 28.42076 0 0 1-40.073272-3.410491l-164.556204-195.81904a19.04191 19.04191 0 0 1-1.705245-3.410491 19.610325 19.610325 0 0 1-2.842076-5.399945 18.473494 18.473494 0 0 1 0-5.684152 19.894532 19.894532 0 0 1 0-3.978906 22.168193 22.168193 0 0 1 0-5.96836 43.767971 43.767971 0 0 1 0-4.831529 17.336664 17.336664 0 0 1 2.842076-3.978907 30.978629 30.978629 0 0 1 3.694699-4.831529 33.820705 33.820705 0 0 1 4.263114-2.557868 11.936719 11.936719 0 0 1 3.694699-1.989454 25.578684 25.578684 0 0 1 10.231473-2.273661h194.966417L369.469886 299.16403a28.42076 28.42076 0 0 1 3.410491-40.073272 28.42076 28.42076 0 0 1 18.189287-6.536775 28.42076 28.42076 0 0 1 21.883986 10.231474l164.556203 195.819039a19.04191 19.04191 0 0 1 1.705246 3.410492 23.020816 23.020816 0 0 1 2.842076 5.115736 22.168193 22.168193 0 0 1-0.284208 6.536775zM0 101.071329h852.622814v-56.841521H0zM426.311407 896a426.311407 426.311407 0 0 1-426.311407-426.311407v-312.628365h852.622814v312.628365a426.311407 426.311407 0 0 1-426.311407 426.311407z m369.469886-682.098251H56.841521v255.786844a369.469886 369.469886 0 0 0 738.939772 0z"  horiz-adv-x="1231" />

    
    <glyph glyph-name="zhihuihuanbao_shengchanyunying" unicode="&#58916;" d="M872.88 724.13c0 16.57-13.43 30-30 30H720.62V797.85c0 16.57-13.43 30-30 30H333.38c-16.57 0-30-13.43-30-30v-43.71H181.12c-16.57 0-30-13.43-30-30v-717.27c0-16.57 13.43-30 30-30h661.76c16.57 0 30 13.43 30 30V724.13z m-509.5 43.72h297.24v-64.18H363.38v64.18z m449.5-730.99H211.12V694.13h92.26v-20.46c0-16.57 13.43-30 30-30h357.24c16.57 0 30 13.43 30 30v20.46h92.26v-657.27zM608.28 473.76c-16.57 0-30-13.43-30-30s13.43-30 30-30h48.94L528.64 285.17 404.69 409.12c-11.71 11.71-30.71 11.72-42.43 0l-84.07-84.06c-11.72-11.71-11.72-30.71 0-42.43 11.71-11.71 30.71-11.72 42.43 0l62.85 62.85 123.95-123.95c5.86-5.86 13.54-8.79 21.21-8.79s15.36 2.93 21.21 8.79l144.74 144.74v-38.82c0-16.57 13.43-30 30-30s30 13.43 30 30V443.76c0 16.57-13.43 30-30 30h-116.3z"  horiz-adv-x="1024" />

    
    <glyph glyph-name="youjiaodidegaishuaidiushishuju" unicode="&#58932;" d="M878.933333 85.333333H145.066667C100.266667 85.333333 64 121.6 64 166.4V686.933333C64 731.733333 100.266667 768 145.066667 768h731.733333C923.733333 768 960 731.733333 960 686.933333v-518.4c0-46.933333-36.266667-83.2-81.066667-83.2zM145.066667 725.333333C123.733333 725.333333 106.666667 708.266667 106.666667 686.933333v-518.4c0-21.333333 17.066667-38.4 38.4-38.4h731.733333c21.333333 0 38.4 17.066667 38.4 38.4V686.933333c0 21.333333-17.066667 38.4-38.4 38.4H145.066667zM768-42.666667H256c-12.8 0-21.333333 8.533333-21.333333 21.333334s8.533333 21.333333 21.333333 21.333333h512c12.8 0 21.333333-8.533333 21.333333-21.333333s-8.533333-21.333333-21.333333-21.333334zM213.333333 170.666667c-12.8 0-21.333333 8.533333-21.333333 21.333333V512c0 12.8 8.533333 21.333333 21.333333 21.333333s21.333333-8.533333 21.333334-21.333333v-320c0-12.8-8.533333-21.333333-21.333334-21.333333zM352 170.666667c-12.8 0-21.333333 8.533333-21.333333 21.333333v170.666667c0 12.8 8.533333 21.333333 21.333333 21.333333s21.333333-8.533333 21.333333-21.333333v-170.666667c0-12.8-8.533333-21.333333-21.333333-21.333333zM490.666667 170.666667c-12.8 0-21.333333 8.533333-21.333334 21.333333V554.666667c0 12.8 8.533333 21.333333 21.333334 21.333333s21.333333-8.533333 21.333333-21.333333v-362.666667c0-12.8-8.533333-21.333333-21.333333-21.333333zM629.333333 170.666667c-12.8 0-21.333333 8.533333-21.333333 21.333333V448c0 12.8 8.533333 21.333333 21.333333 21.333333s21.333333-8.533333 21.333334-21.333333v-256c0-12.8-8.533333-21.333333-21.333334-21.333333zM768 170.666667c-12.8 0-21.333333 8.533333-21.333333 21.333333v128c0 12.8 8.533333 21.333333 21.333333 21.333333s21.333333-8.533333 21.333333-21.333333v-128c0-12.8-8.533333-21.333333-21.333333-21.333333zM793.6 544c-6.4 0-12.8 2.133333-17.066667 6.4l-42.666666 27.733333c-10.666667 6.4-12.8 19.2-6.4 29.866667 6.4 10.666667 19.2 12.8 29.866666 6.4l32-23.466667 66.133334 83.2c6.4 8.533333 21.333333 10.666667 29.866666 2.133334 8.533333-6.4 10.666667-21.333333 2.133334-29.866667L814.933333 554.666667c-4.266667-6.4-10.666667-10.666667-19.2-12.8 2.133333 2.133333 0 2.133333-2.133333 2.133333z"  horiz-adv-x="1024" />

    
    <glyph glyph-name="wenjuantiaocha" unicode="&#59030;" d="M372.425646 221.011588m23.267439 0l325.744149 0q23.267439 0 23.267439-23.267439l0-46.534878q0-23.267439-23.267439-23.26744l-325.744149 0q-23.267439 0-23.267439 23.26744l0 46.534878q0 23.267439 23.267439 23.267439ZM742.19179 579.865303l-208.964872-200.495523a47.163099 47.163099 0 0 0-63.682981-6.514883 42.719018 42.719018 0 0 0 6.770825 61.100295l208.964871 200.495524a47.163099 47.163099 0 0 0 63.682982 6.491615 42.672484 42.672484 0 0 0-6.770825-61.077028zM450.860183 509.039218l70.570143-70.477073a45.953192 45.953192 0 0 0 5.700523-64.264667 46.06953 46.06953 0 0 0-64.334469 5.72379l-70.546876 70.477073a45.929925 45.929925 0 0 0-5.72379 64.2414 46.06953 46.06953 0 0 0 64.334469-5.700523zM1108.025737 207.772415l-200.751466 180.927608a23.267439 23.267439 0 0 1-37.739786-18.334742v-335.446672a23.267439 23.267439 0 0 0-23.26744-23.267439H283.869772a23.267439 23.267439 0 0 0-23.267439 23.267439v143.373961a23.267439 23.267439 0 0 1-8.911429 18.311475l-93.069757 73.152828a23.267439 23.267439 0 0 1-37.763054-18.334742v-262.922063a116.779277 116.779277 0 0 1 116.476801-116.337196h655.37396a116.779277 116.779277 0 0 1 116.476801 116.337196v177.693433a23.267439 23.267439 0 0 0 23.267439 23.26744h61.007226c22.290207-0.069802 31.969461 4.63022 14.565417 18.311474zM260.602333 399.216905v340.565508a16.287207 16.287207 0 0 0 16.287207 16.287208h574.868621a17.497114 17.497114 0 0 0 17.659986-16.287208v-137.580368a16.287207 16.287207 0 0 1 6.258942-12.890161l106.913883-83.762782a16.287207 16.287207 0 0 1 26.52488 12.890162v284.351374a93.232629 93.232629 0 0 1-93.069756 93.069757h-701.978642a93.232629 93.232629 0 0 1-93.069757-93.069757v-192.07271a16.287207 16.287207 0 0 0-16.403544-16.287208h-87.95092a16.287207 16.287207 0 0 1-10.121336-29.270438l227.648625-178.624131a16.403545 16.403545 0 0 1 26.431811 12.680754z"  horiz-adv-x="1117" />

    
    <glyph glyph-name="caiwuguanli" unicode="&#59057;" d="M512 864a480 480 0 1 0 0-960 480 480 0 0 0 0 960z m0-64a416 416 0 1 1 0-832 416 416 0 0 1 0 832zM363.52 640L512 378.752 660.48 640h75.52L584.96 374.144h101.504v-66.432H544.64v-66.496h141.76v-66.432H544.64V64H479.36v110.72H337.536v66.56H479.36V307.648H337.536V374.144H439.04L288 640h75.52z"  horiz-adv-x="1024" />

    
    <glyph glyph-name="jichushuju" unicode="&#59058;" d="M512 864c204.032 0 374.528-89.984 383.616-213.632L896 640v-518.4h-0.256l-0.128-3.968C886.528-6.016 716.032-96 512-96c-204.032 0-374.528 89.984-383.616 213.632l-0.192 3.968H128V640l0.384 10.368C137.472 774.016 307.968 864 512 864z m0-704c-132.48 0-250.88 37.952-320 98.368V128c0-83.136 140.928-160 320-160 173.44 0 311.168 72.128 319.616 152.256L832 128l0.128 130.432C762.88 197.952 644.608 160 512 160z m320.128 354.432C762.88 453.952 644.608 416 512 416c-132.48 0-250.88 37.952-320 98.432V384c0-83.136 140.928-160 320-160 173.44 0 311.168 72.128 319.616 152.256L832 384l0.128 130.432zM512 800C332.928 800 192 723.136 192 640s140.928-160 320-160 320 76.864 320 160-140.928 160-320 160z"  horiz-adv-x="1024" />

    
    <glyph glyph-name="wulianwang" unicode="&#59059;" d="M967.68 233.28a478.208 478.208 0 0 0-215.68-264.96 478.208 478.208 0 0 0-337.536-54.336c98.432 14.72 203.712 50.944 305.536 109.76 99.136 57.216 181.44 128 242.944 203.584l4.8 5.952z m9.472 269.76a476.8 476.8 0 0 0 14.464-97.92c-73.792-104.768-186.496-206.656-326.016-287.168-139.52-80.576-284.16-127.296-411.776-138.688a475.584 475.584 0 0 0-77.632 61.568c130.688-4.224 296.32 39.552 457.408 132.544 152.512 88.064 268.864 201.728 333.248 311.424l10.24 18.24zM908.16 655.104a486.72 486.72 0 0 0 35.84-61.824C867.392 481.728 737.792 366.528 576 273.152c-161.728-93.44-326.208-148.096-461.184-158.72a487.232 487.232 0 0 0-35.712 62.08c126.208 3.392 295.936 54.528 464.896 152.064 160.256 92.544 284.672 206.528 353.408 309.76l10.752 16.768zM736.512 808.32c21.44-11.328 42.112-24.32 61.824-38.912C780.032 652.8 662.528 515.264 492.8 417.28 323.072 319.232 145.088 286.272 35.008 328.768a486.848 486.848 0 0 0-2.752 72.96c76.672-52.288 254.272-29.696 428.544 70.976 167.296 96.576 273.92 231.744 276.032 324.288l-0.32 11.328zM565.76 860.992c22.016-2.496 43.776-6.464 65.152-11.968 0.576-91.584-89.664-204.288-224.512-282.112C271.616 489.088 128.896 467.2 49.792 513.408c5.952 21.376 13.44 42.24 22.208 62.592 46.208-40.768 174.976-27.2 302.4 46.336C499.84 694.72 575.552 797.376 566.336 858.112l-0.64 2.88zM434.56 838.144c13.248-22.976-38.016-77.44-114.56-121.6-76.544-44.16-149.312-61.376-162.56-38.4-7.808 13.568 6.848 38.144 36.032 65.088a482.176 482.176 0 0 0 78.528 56.448l16.064 8.96A484.608 484.608 0 0 0 359.68 839.296C397.824 851.2 426.688 851.776 434.56 838.144z"  horiz-adv-x="1024" />

    
    <glyph glyph-name="anquanhuanbao" unicode="&#59060;" d="M512 800a128 128 0 0 0 119.936-83.2l-11.008 3.52a384.128 384.128 0 0 0 274.752-352.32L896 352l0.128-41.024c60.416-31.36 95.872-71.488 95.872-118.976 0-112.32-205.696-188.416-461.632-191.872h-36.736C237.632 3.584 32 79.68 32 192c0 45.76 32.896 84.672 89.408 115.52L128 310.976V352a384.192 384.192 0 0 0 264.064 364.928A128.064 128.064 0 0 0 512 800z m365.44-551.808l-3.392-2.176C784.256 191.68 653.056 160 512 160c-127.616 0-247.04 25.92-335.104 71.04l-17.152 9.216-13.248 7.936-4.608-2.688c-24.704-14.976-39.232-30.144-44.096-43.712l-1.28-4.992L96 192c0-61.696 185.6-128 416-128s416 66.304 416 128c0 14.016-11.904 30.592-36.224 47.232l-9.664 6.272-4.672 2.688zM512 736a64 64 0 0 1-63.552-56.512L448 672V512H384V645.44a320.256 320.256 0 0 1-191.68-278.912L192 352v-56.448c78.72-44.608 194.56-71.552 320-71.552 125.568 0 241.536 27.008 320.128 71.616L832 352a320.192 320.192 0 0 1-191.936 293.376L640 512H576V672a64 64 0 0 1-64 64z"  horiz-adv-x="1024" />

    
    <glyph glyph-name="kanchasheji" unicode="&#59061;" d="M960 864v-960H64V864h896z m-64-64H128v-832h768v832zM832 128v-64H192v64h640zM583.744 732.8l181.056-180.992-362.048-362.048H221.696V370.752L583.744 732.8zM832 256v-64h-192v64h192zM583.744 642.304l-45.248-45.248 45.248-45.248-45.248-45.312-45.248 45.312-207.552-207.552 0.064-90.496h90.496l298.048 298.048L583.68 642.304z"  horiz-adv-x="1024" />

    
    <glyph glyph-name="juecefenxi" unicode="&#59062;" d="M960 64v-64H64v64h896zM320 448v-320H128V448h192z m288 192v-512h-192V640h192zM896 832v-704h-192V832h192zM256 384H192v-192h64V384z m288 192h-64v-384h64V576zM832 768h-64v-576h64V768z"  horiz-adv-x="1024" />

    
    <glyph glyph-name="qingjia" unicode="&#59063;" d="M352 577.856c125.44 0 228.864-120.064 110.08-344.512-39.04-73.728 43.328-91.264 129.92-111.232 66.56-15.36 78.016-46.016 79.744-97.088l0.256-27.264-0.128-59.904H32.128v79.168l0.64 17.792c3.008 45.248 17.024 72.96 79.232 87.296l35.968 8.384 17.344 4.48c62.272 16.768 108.16 40.064 76.608 98.368-119.104 219.84-17.792 344.512 110.08 344.512z m0-64c-97.6 0-139.2-92.416-53.76-250.048 33.984-62.848 18.304-123.136-37.12-158.72-25.152-16.128-49.408-24.832-97.28-36.608l-51.584-12.096c-12.672-3.392-15.616-7.36-16.192-26.496l-0.064-28.032h511.936l0.128 21.504c-0.192 24.832-2.368 29.312-16.256 33.024l-25.088 5.824c-65.984 15.296-96 24.576-125.376 44.032-53.888 35.712-68.608 95.104-35.84 157.056 84.992 160.512 43.648 250.56-53.504 250.56z m289.408 350.72a384 384 0 0 0 83.2-748.544l-15.232-4.48-16.96 61.696a320.128 320.128 0 1 1-344.576 495.36l-8.256-12.16-53.632 35.008A383.872 383.872 0 0 0 641.408 864.576zM640 673.856v-187.008l134.272-77.568-32-55.424L576 449.856v224h64z"  horiz-adv-x="1024" />

    
    <glyph glyph-name="wenjianshenpi" unicode="&#59064;" d="M480.64 863.552C618.752 871.936 736 765.184 736 629.12a232.32 232.32 0 0 0-91.008-183.936c-21.824-16.96-34.304-43.904-36.608-77.056l-0.384-11.2v-20.864l112-0.064v-112H896v-192h-67.2a160.064 160.064 0 0 0-145.856-127.616l-10.944-0.384H320a160 160 0 0 0-156.8 128H96v192h176V336H384v17.536c0 36.096-10.688 66.24-31.232 86.4L345.6 446.272A231.936 231.936 0 0 0 258.24 661.76C272.256 762.752 353.92 844.032 455.68 860.8l12.352 1.664 12.608 1.088zM762.432 32H229.44l1.28-3.392c11.904-30.08 38.528-52.672 71.04-58.88l8.96-1.344L320-32h352a96 96 0 0 1 85.696 52.672l3.584 8 1.152 3.392z m69.568 128H160v-64H832v64z m-176 112h-320v-48h320v48z m16 357.056c0 101.76-91.008 181.504-196.928 169.728-78.592-8.768-142.912-70.08-153.408-145.92a167.552 167.552 0 0 1 54.272-148.608l18.56-15.744c32.896-30.4 50.432-73.28 53.12-121.728L448 353.536v-17.472h96v20.864c0 47.936 14.656 91.2 44.16 122.752l8.448 8.32 18.496 15.488c35.968 32 56.896 77.12 56.896 125.632z"  horiz-adv-x="1024" />

    
    <glyph glyph-name="chucha" unicode="&#59065;" d="M878.464 831.488c-48.064-4.288-108.16-35.84-150.784-78.528L630.912 656.256l-428.352 102.4-119.04-119.04 342.592-187.968L275.904 301.44l-132.864 36.224-95.552-96.064 185.728-140.48 136.448-181.76 95.936 95.808-36.416 132.992 150.336 150.208 185.6-337.728 121.984 91.52-103.616 450.176 97.536 97.408a298.496 298.496 0 0 1 69.952 111.36c13.952 41.92 12.864 79.488-9.728 102.08-13.056 13.056-30.976 18.816-51.904 18.816l-10.88-0.512z m10.88-63.488l6.592-0.256c1.024-0.768 1.408-15.04-5.76-36.352a234.88 234.88 0 0 0-54.4-86.4l-122.56-122.496 102.144-444.096-29.696-22.272L594.56 403.904l-236.8-236.8 36.288-132.928-17.472-17.408-94.72 126.272-6.4 6.336-131.008 99.072 17.664 17.664 132.8-36.224 236.864 236.8-342.72 187.968 33.408 33.408 428.352-102.4 122.112 122.048C807.808 742.528 858.56 768 889.344 768z"  horiz-adv-x="1024" />

    
    <glyph glyph-name="ribao" unicode="&#59066;" d="M960-64H64V832h896v-896zM896 608H128V0h768V608z m-349.056-128l0.192-304h71.872v-64h-208v64h72.128V390.08l-51.136-29.504-32 55.424 110.848 64h36.096zM896 768H128v-96h768V768z"  horiz-adv-x="1024" />

    
    <glyph glyph-name="tousu" unicode="&#59070;" d="M960 800v-768H624L512-117.312 400 32H64v768h896z m-64-64H128v-640h304L512-10.688 592 96H896v640z m-384-448a64 64 0 1 0 0-128 64 64 0 0 0 0 128zM576 640l-32-320h-64L448 640h128z"  horiz-adv-x="1024" />

    
    <glyph glyph-name="jiance" unicode="&#59075;" d="M544 864v-65.216a416.064 416.064 0 0 0 382.784-382.848L992 416v-64h-65.216a416.064 416.064 0 0 0-382.72-382.784L544-96h-64v65.216a416.064 416.064 0 0 0-382.784 382.72L32 352v64h65.216A416.064 416.064 0 0 0 480 798.72L480 864h64z m0-129.408V672h-64v62.592A352.128 352.128 0 0 1 161.408 416H224v-64h-62.592A352.128 352.128 0 0 1 480 33.344V96h64v-62.592A352.128 352.128 0 0 1 862.656 352L800 352v64h62.592A352.128 352.128 0 0 1 544 734.592zM512 576a192 192 0 1 0 0-384 192 192 0 0 0 0 384z m0-64a128 128 0 1 1 0-256 128 128 0 0 1 0 256z"  horiz-adv-x="1024" />

    
    <glyph glyph-name="guangbo" unicode="&#59076;" d="M422.144-33.728l-185.472-49.664L162.88 160H96v512h256l576 160v-832L384 160h-22.336l60.48-193.728z m-140.16 28.736l61.824 16.576-48.384 148.416H229.184l52.8-164.992zM864 743.04l-448-117.12v-419.776l448-117.184V743.04z m-512-135.04h-192v-337.792 35.008V224h192v384z"  horiz-adv-x="1024" />

    
    <glyph glyph-name="yuebao" unicode="&#59078;" d="M960 832v-896H64V832h896z m-64-224H128V0h768V608zM480 496v-384H256v64h160v96H256v64h160v96H256v64h224z m288 0v-384H544v384H768z m-64-64H608v-256H704v256zM896 768H128v-96h768V768z"  horiz-adv-x="1024" />

    
    <glyph glyph-name="taizhang" unicode="&#59079;" d="M752.941176 835.764706v-60.235294h150.588236v-843.294118h-783.058824V775.529412H271.058824V835.764706h481.882352zM271.058824 715.294118H180.705882v-722.82353h662.588236V715.294118H752.941176v-60.235294H271.058824V715.294118z m271.058823-542.117647v-60.235295H271.058824v60.235295h271.058823zM752.941176 353.882353v-60.235294H271.058824V353.882353h481.882352z m-90.352941 180.705882v-60.235294H271.058824V534.588235h391.529411z m30.117647 240.941177H331.294118v-60.235294h361.411764V775.529412z"  horiz-adv-x="1024" />

    
    <glyph glyph-name="yidaohuo" unicode="&#59083;" d="M736 800V576h151.552L992 405.312V64h-144.896a144 144 0 1 0-286.208 0H447.104a144 144 0 1 0-286.208 0H64V800h672zM624 48a80 80 0 1 1 158.4 16h-156.8a80.576 80.576 0 0 1-1.6-16zM382.4 64h-156.8a80 80 0 1 1 156.8 0zM672 736H128V128h544V736zM851.712 512H736v-384h192V387.264L851.712 512z m-288.64 44.48l45.248-45.312L382.08 284.928 223.68 443.328l45.248 45.248 113.088-113.088 181.12 180.992z"  horiz-adv-x="1024" />

    
    <glyph glyph-name="ruku" unicode="&#59084;" d="M846.72 728.128a480 480 0 1 0-690.752-12.416l11.904 12.416 45.312-45.248a416 416 0 1 1 599.872-12.096l-11.584 12.096 45.248 45.248zM624 864l0.064-290.624H832l-320-384-320 384h208.064L400 864h224z m-63.936-64H464l0.064-290.56H328.64L512 289.344l183.424 220.096H560.064V800z"  horiz-adv-x="1024" />

    
    <glyph glyph-name="kucun" unicode="&#59085;" d="M512 864a480 480 0 1 0 0-960 480 480 0 0 0 0 960z m0-64a416 416 0 1 1 0-832 416 416 0 0 1 0 832z m-144-384V320h-96V416h96z m192 0V320h-96V416h96z m192 0V320h-96V416h96z"  horiz-adv-x="1024" />

    
    <glyph glyph-name="yujing" unicode="&#59093;" d="M933.647059 22.588235v-60.235294H90.352941v60.235294h843.294118z m-421.647059 602.352941a301.176471 301.176471 0 0 0 301.176471-301.17647v-240.941177H210.823529v240.941177a301.176471 301.176471 0 0 0 301.176471 301.17647z m0-60.235294a240.941176 240.941176 0 0 1-240.64-228.894117L271.058824 323.764706v-180.705882h481.882352v180.705882a240.941176 240.941176 0 0 1-228.894117 240.64L512 564.705882z m451.764706-180.705882v-60.235294h-120.470588v60.235294h120.470588z m-783.058824 0v-60.235294h-120.470588v60.235294h120.470588z m629.458824 310.633412l42.586353-42.586353-85.172706-85.172706-42.586353 42.586353 85.172706 85.172706z m-596.329412 0l85.172706-85.172706-42.586353-42.586353L171.248941 652.047059l42.586353 42.586353zM542.117647 805.647059v-120.470588h-60.235294v120.470588h60.235294z"  horiz-adv-x="1024" />

    
    <glyph glyph-name="jiance1" unicode="&#59094;" d="M512 864a480 480 0 1 0 0-960 480 480 0 0 0 0 960z m306.048-198.208L602.496 293.504l-372.288-215.552a416 416 0 0 1 587.84 587.84zM512 800a416 416 0 0 1-306.048-697.792l215.552 372.288 372.288 215.552A414.528 414.528 0 0 1 512 800z m163.776-252.224l-207.36-120.064-120.128-207.424 207.36 120.128 120.128 207.36z"  horiz-adv-x="1024" />

    
    <glyph glyph-name="fenbufenxiang" unicode="&#59095;" d="M224 32V576h-192V832h448v-256h-192v-159.936L448 416V512h512v-256H448V352l-160 0.064V96H448V192h512v-256H448v96H224zM512 0h384v128H512v-128z m384 448H512v-128h384V448zM416 768h-320v-128h320V768z"  horiz-adv-x="1024" />

    
    <glyph glyph-name="yonghu" unicode="&#59096;" d="M437.312 832c88.32 0 158.4-48.128 193.92-125.056l-9.6-3.328c18.752 7.296 39.296 11.072 61.184 11.072 98.56 0 167.296-78.72 167.296-188.352 0-30.656-4.352-60.8-13.248-87.872a267.52 267.52 0 0 0-23.744-51.52l-13.184-22.4-6.72-12.352-2.304-4.992a41.6 41.6 0 0 1-4.032-16.448c0-23.744 7.808-37.44 26.24-49.536 8.32-5.504 17.792-8.32 36.096-10.496l19.2-1.856c36.928-3.008 53.568-5.952 74.048-16.32 39.808-20.224 50.56-54.4 50.496-114.688l-0.96-42.368-0.512-31.488-143.232 0.128c3.392-22.016 4.992-48 5.12-78.016v-18.56l-0.448-31.552H21.76l-0.512 48.128c0.256 91.392 13.696 145.28 49.664 165.632 25.6 14.528 46.912 20.096 87.68 25.088l19.968 2.304 23.424 2.944c26.816 4.16 44.608 10.176 61.312 21.504 49.216 33.28 73.088 106.88 50.816 135.424l-37.248 48.64-2.944 4.352-9.728 15.36c-30.4 49.216-46.208 113.28-46.208 178.176C217.984 728.96 308.16 832 437.312 832z m0-64C345.6 768 281.984 695.36 281.984 583.552c0-47.744 10.24-94.528 29.12-131.2l7.488-13.312 10.944-17.024 35.008-45.632c48.384-61.888 11.392-175.744-65.28-227.84-25.6-17.28-51.2-25.984-86.016-31.424l-15.488-2.176-40.192-4.736c-26.432-3.648-40.32-7.68-55.04-16.064-6.592-3.712-13.504-29.184-16.192-74.24L85.504 0h703.552l-0.768 19.904c-2.176 37.184-7.296 60.992-12.736 70.272l-1.792 2.56-1.664 1.408a151.04 151.04 0 0 1-33.408 14.016 207.808 207.808 0 0 1-16 3.904l-9.408 1.792-46.656 7.68a375.04 375.04 0 0 0-85.184 23.872c-91.328 36.672-117.632 158.464-74.752 225.472l5.248 7.488 30.208 40 14.336 21.44c23.744 36.096 36.16 87.872 36.16 143.744C592.64 695.36 529.088 768 437.312 768z m245.504-117.312c-11.712 0-22.4-1.6-32.192-4.736 3.968-19.712 6.016-40.576 6.016-62.4 0-61.248-12.608-119.552-38.528-165.504l-8.128-13.44-17.28-25.6-30.08-39.68c-25.6-33.28-10.368-113.28 42.624-134.528l18.048-6.784c19.968-6.912 37.824-10.88 68.096-15.744l24.64-3.968 17.984-3.2c8.064-1.6 14.976-3.328 22.4-5.44 16.64-4.8 32-11.2 47.296-19.84 8.96-5.12 16.64-12.352 22.912-21.76l102.144-0.064 0.192 9.344c0 33.28-3.968 49.6-12.672 56.32l-2.752 1.792c-9.152 4.672-19.008 6.784-40.384 8.768l-11.2 0.96c-41.344 3.392-61.248 7.552-84.032 22.528-35.968 23.68-55.04 57.216-55.04 103.04 0 14.208 3.2 27.648 9.152 41.6 2.176 5.12 4.608 10.048 7.616 15.552l17.984 30.976a206.72 206.72 0 0 1 18.432 39.616c6.656 20.16 10.048 43.648 10.048 67.84 0 76.16-42.24 124.352-103.296 124.352z"  horiz-adv-x="1024" />

    
    <glyph glyph-name="liucheng" unicode="&#59097;" d="M176 848c50.752 0 93.76-33.728 107.52-80h436.48a208 208 0 0 0 11.776-415.68l-11.776-0.32h-68.672a112 112 0 0 0-214.656-0.128L304 352a144 144 0 0 1-9.856-287.68L304 64h436.48a112.256 112.256 0 0 0 107.52 80 112 112 0 0 0 0-224A112.256 112.256 0 0 0 740.48 0H304a208 208 0 0 0-11.776 415.68L304 416h132.672a112 112 0 0 0 214.72 0h68.608a144 144 0 0 1 9.856 287.68L720 704H283.52a112.256 112.256 0 0 0-107.52-80 112 112 0 0 0 0 224z m672-768a48 48 0 1 1 0-96 48 48 0 0 1 0 96zM544 432a48 48 0 0 1-40.704-22.592l-1.792-3.072a47.808 47.808 0 0 1-4.608-31.68l1.6-5.952 1.792-4.48 3.2-5.888 3.968-5.44-2.624 3.392a48 48 0 0 1 79.744 2.048l1.92 3.392 1.28 2.496 1.728 4.48a48 48 0 0 1-1.728 35.072l-1.28 2.56-1.792 3.072-1.6 2.432A48 48 0 0 1 544 432z m-368 352a48 48 0 1 1 0-96 48 48 0 0 1 0 96z"  horiz-adv-x="1024" />

    
    <glyph glyph-name="quanxianzu" unicode="&#59099;" d="M448 768l128-96h384v-704H64V768h384z m-21.312-64H128v-672h768v576H554.688l-128 96zM512 448a64 64 0 0 0 32.064-119.424L544 192h-64V328.576A64 64 0 0 0 512 448z"  horiz-adv-x="1024" />

    
    <glyph glyph-name="quanxianguanli" unicode="&#59100;" d="M512 864a256 256 0 0 0 255.68-243.2l0.32-12.8V512h128v-576H128V512h128V608A256 256 0 0 0 499.2 863.68L512 864zM832 448H192v-448h640V448zM512 352a64 64 0 0 0 32.064-119.424L544 96h-64v136.576A64 64 0 0 0 512 352z m0 448a192 192 0 0 1-191.68-180.736L320 608V512h384V608a192 192 0 0 1-169.6 190.72l-11.136 0.96L512 800z"  horiz-adv-x="1024" />

    
    <glyph glyph-name="shuidianbiao" unicode="&#59101;" d="M512 880c256-253.184 384-450.496 384-591.872a384 384 0 0 0-768 0C128 429.568 256 626.816 512 880z m33.984-126.208L512 789.184l-15.168-15.616C292.672 561.28 192 396.8 192 288.128a320 320 0 1 1 640 0c0 105.28-94.528 262.976-286.016 465.664z m-61.248-193.024l54.528-33.536L441.216 368h256l-157.952-256.768-54.528 33.536 97.92 159.232H326.72l158.08 256.768z"  horiz-adv-x="1024" />

    
    <glyph glyph-name="shuizhi" unicode="&#59103;" d="M448 864c116.736-137.216 204.48-256.32 263.168-357.376 17.408 22.272 36.48 45.44 56.832 69.376 149.312-175.488 224-304.448 224-386.944a224 224 0 0 0-318.4-203.2A352 352 0 0 0 96 256C96 385.536 213.312 588.224 448 864z m0-99.84l-6.656-8.064C253.312 525.568 160 355.776 160 255.936a288 288 0 0 1 457.472-232.832A223.68 223.68 0 0 0 544 189.056c0 61.568 41.6 149.056 124.8 262.4-46.72 84.864-118.016 186.816-214.144 304.64L448 764.16z m320-288.64l-6.848-8.576c-5.76-7.36-11.392-14.528-16.832-21.632a1620.8 1620.8 0 0 1-31.488-42.176l4.608 6.4c-5.568-7.68-11.008-15.36-16.192-22.72l-9.728-14.08C635.712 290.56 608 228.416 608 189.056c0-45.952 19.392-87.36 50.368-116.544l6.656-5.888a159.296 159.296 0 0 1 22.016-15.616l-2.048 1.28c3.648-2.24 7.36-4.288 11.2-6.272l-9.152 4.992c3.648-2.112 7.424-4.16 11.2-6.016l-2.048 1.024c4.16-2.048 8.448-3.968 12.8-5.76l-10.752 4.736c4.544-2.176 9.216-4.16 13.952-5.952l-3.2 1.28c3.84-1.536 7.744-2.944 11.712-4.16l-8.512 2.88a160 160 0 0 1 215.808 150.016c0 50.88-46.336 140.16-140.096 261.12L768 475.52z"  horiz-adv-x="1024" />

    
    <glyph glyph-name="chengshidizhi" unicode="&#59052;" d="M556.043011 807.913978a27.526882 27.526882 0 0 0 27.526881-27.526881v-255.680688l334.418581-134.843183A33.032258 33.032258 0 0 0 897.376344 327.23957V26.150538h11.010753a27.526882 27.526882 0 0 0 27.526881-27.526882v-11.010753a27.526882 27.526882 0 0 0-27.526881-27.526881H115.612903a27.526882 27.526882 0 0 0-27.526881 27.526881v11.010753a27.526882 27.526882 0 0 0 27.526881 27.526882h49.548387V780.387097a27.526882 27.526882 0 0 0 27.526882 27.526881h363.354839z m27.526881-354.436129v-138.295053h107.354839a33.032258 33.032258 0 0 0 1.23871-66.042495l-1.23871-0.022021H583.569892v-66.064517h107.354839a33.032258 33.032258 0 0 0 1.23871-66.042494l-1.23871-0.022022H583.569892V26.150538h247.741936V353.582796L583.569892 453.477849zM517.505376 741.849462H231.225806v-715.698924h55.053764v165.16129a27.526882 27.526882 0 0 0 27.526882 27.526882h121.118279a27.526882 27.526882 0 0 0 27.526882-27.526882v-165.16129h55.053763V741.849462zM396.387097 152.774194h-44.043011v-126.623656h44.043011v126.623656zM324.817204 466.580645a27.526882 27.526882 0 0 0 27.526882-27.526882v-82.580645a27.526882 27.526882 0 0 0-27.526882-27.526881h-11.010752a27.526882 27.526882 0 0 0-27.526882 27.526881V439.053763a27.526882 27.526882 0 0 0 27.526882 27.526882h11.010752z m110.107527 0a27.526882 27.526882 0 0 0 27.526882-27.526882v-82.580645a27.526882 27.526882 0 0 0-27.526882-27.526881h-11.010753a27.526882 27.526882 0 0 0-27.526881 27.526881V439.053763a27.526882 27.526882 0 0 0 27.526881 27.526882h11.010753zM324.817204 664.774194a27.526882 27.526882 0 0 0 27.526882-27.526882v-82.580645a27.526882 27.526882 0 0 0-27.526882-27.526882h-11.010752a27.526882 27.526882 0 0 0-27.526882 27.526882V637.247312a27.526882 27.526882 0 0 0 27.526882 27.526882h11.010752z m110.107527 0a27.526882 27.526882 0 0 0 27.526882-27.526882v-82.580645a27.526882 27.526882 0 0 0-27.526882-27.526882h-11.010753a27.526882 27.526882 0 0 0-27.526881 27.526882V637.247312a27.526882 27.526882 0 0 0 27.526881 27.526882h11.010753z"  horiz-adv-x="1024" />

    
    <glyph glyph-name="fenxiang" unicode="&#59053;" d="M803.784946 807.913978c72.973763 0 132.129032-59.155269 132.129032-132.129032s-59.155269-132.129032-132.129032-132.129032a131.743656 131.743656 0 0 0-95.254021 40.563613l-250.88-142.005678A184.479656 184.479656 0 0 0 467.956989 381.247312c0-27.240602-5.901763-53.115871-16.516129-76.464172l166.752344-108.164129A131.556473 131.556473 0 0 0 699.182796 224.344086c72.973763 0 132.129032-59.155269 132.129032-132.129032s-59.155269-132.129032-132.129032-132.129032-132.129032 59.155269-132.129033 132.129032c0 18.443011 3.776688 36.005161 10.603355 51.954236l-163.795957 106.248258C379.375484 215.645591 331.252989 194.064516 278.021505 194.064516c-104.899441 0-189.935484 83.802839-189.935483 187.182796s85.036043 187.182796 189.935483 187.182796c59.292903 0 112.243613-26.778151 147.070624-68.729119l250.984602 142.066237A132.32172 132.32172 0 0 0 671.655914 675.784946c0 72.973763 59.155269 132.129032 132.129032 132.129032z m-104.60215-649.634408c-36.484129 0-66.064516-29.580387-66.064516-66.064516s29.580387-66.064516 66.064516-66.064516 66.064516 29.580387 66.064516 66.064516-29.580387 66.064516-66.064516 66.064516zM278.021505 502.365591c-68.624516 0-123.870968-54.448172-123.870967-121.118279s55.246452-121.11828 123.870967-121.11828 123.870968 54.448172 123.870968 121.11828-55.246452 121.11828-123.870968 121.118279zM803.784946 741.849462c-36.484129 0-66.064516-29.580387-66.064516-66.064516s29.580387-66.064516 66.064516-66.064516 66.064516 29.580387 66.064516 66.064516-29.580387 66.064516-66.064516 66.064516z"  horiz-adv-x="1024" />

    
    <glyph glyph-name="tizhong" unicode="&#59055;" d="M908.387097 807.913978a27.526882 27.526882 0 0 0 27.526881-27.526881v-792.774194a27.526882 27.526882 0 0 0-27.526881-27.526881H115.612903a27.526882 27.526882 0 0 0-27.526881 27.526881V780.387097a27.526882 27.526882 0 0 0 27.526881 27.526881h792.774194z m-38.537635-66.064516H154.150538v-715.698924h715.698924V741.849462zM413.574882 519.531355L482.524215 455.23957A76.844043 76.844043 0 0 0 512 461.075269c42.56757 0 77.075269-34.507699 77.075269-77.075269s-34.507699-77.075269-77.075269-77.075269-77.075269 34.507699-77.075269 77.075269a77.075269 77.075269 0 0 0 3.259183 22.24172L368.518882 471.221677a27.526882 27.526882 0 0 0-1.359828 38.906495l7.509333 8.04886a27.526882 27.526882 0 0 0 38.906495 1.359828zM512 714.322581c179.392688 0 324.817204-145.424516 324.817204-324.817205a33.032258 33.032258 0 0 0-66.064516 0c0 142.903054-115.849634 258.752688-258.752688 258.752689S253.247312 532.40843 253.247312 389.505376a33.032258 33.032258 0 1 0-66.064516 0c0 179.392688 145.424516 324.817204 324.817204 324.817205z"  horiz-adv-x="1024" />

    
    <glyph glyph-name="shijian1" unicode="&#59067;" d="M512 807.913978c234.121634 0 423.913978-189.792344 423.913978-423.913978s-189.792344-423.913978-423.913978-423.913978-423.913978 189.792344-423.913978 423.913978 189.792344 423.913978 423.913978 423.913978z m0-66.064516c-197.637505 0-357.849462-160.211957-357.849462-357.849462s160.211957-357.849462 357.849462-357.849462 357.849462 160.211957 357.849462 357.849462-160.211957 357.849462-357.849462 357.849462z m5.505376-121.118279a27.526882 27.526882 0 0 0 27.526882-27.526882v-194.620559l177.504344-204.194409a27.526882 27.526882 0 0 0-2.71415-38.834924l-8.313119-7.223054a27.526882 27.526882 0 0 0-38.834924 2.71415l-184.204387 211.901936a27.400258 27.400258 0 0 0-6.441291 13.934107A27.389247 27.389247 0 0 0 478.967742 389.505376V593.204301a27.526882 27.526882 0 0 0 27.526882 27.526882h11.010752z"  horiz-adv-x="1024" />

    
    <glyph glyph-name="nianling" unicode="&#59068;" d="M118.310538 807.913978c122.588215 0 222.114409-31.991742 297.136172-96.597333C474.618495 660.369892 511.603613 607.854108 530.883441 553.295828l1.475441-4.255656c23.359312 53.468215 51.56886 98.612301 84.733247 135.377204 65.954409 73.122409 161.687398 98.700387 283.003871 78.011183a32.878108 32.878108 0 0 0 17.672258-9.061849l0.941419-0.616602a32.944172 32.944172 0 0 0 14.192861-22.186667c18.305376-114.209032-7.635957-213.641634-77.658839-295.611183-66.218667-77.515699-169.796817-106.963957-307.552344-90.596473v-30.802581c0.027527-0.699183 0.027527-1.403871 0-2.114064V-6.88172a33.032258 33.032258 0 0 0-66.048-1.23871l-0.022022 1.23871v290.584774l-6.788129 1.029505c-9.931699 1.552516-19.659699 3.193118-29.178494 4.932817l-9.452732 1.767226-8.896688 1.745204c-25.027441 5.026409-48.535398 10.729978-70.51286 17.121721l-7.691011 2.290236c-86.472946 26.238624-148.513032 63.609118-185.955096 113.063914-32.316559 42.683183-54.349075 99.173849-66.521463 169.477506l-1.288258 7.724043-1.211183 7.83415c-2.537978 17.094194-4.530925 34.95914-5.973333 53.594839l-0.627613 8.659957c-2.064516 30.488774-2.714151 62.998022-1.970925 97.522237a33.032258 33.032258 0 0 0 31.496258 37.425548l1.266237 0.022021z m33.021247-66.950881v-3.473893c0.022022-2.972903 0.049548-5.91828 0.088086-8.847139l0.154151-8.726022c0.154151-7.223054 0.385376-14.319484 0.688172-21.300301l0.401892-8.313118 0.467957-8.197506c0.423914-6.777118 0.919398-13.433118 1.486452-19.973505l0.715699-7.784602c0.374366-3.859269 0.776258-7.68 1.205677-11.451183l0.886366-7.487312c0.770753-6.193548 1.618581-12.265978 2.532473-18.211785l1.128602-7.074408c10.31157-61.996043 28.694022-110.201118 54.734451-144.593205 24.465892-32.316559 65.970925-59.347957 124.625205-80.505118l6.463312-2.284731c13.069763-4.525419 26.954323-8.770065 41.659182-12.722925l7.415742-1.954409c6.243097-1.613075 12.623828-3.171097 19.147699-4.679569l7.89471-1.783742 8.037849-1.739699c5.395269-1.139613 10.889634-2.251699 16.472086-3.325248l8.439742-1.596559c2.835269-0.517505 5.698065-1.029505 8.577377-1.541505l8.71501-1.486452c2.763699-0.462452 5.543914-0.919398 8.346151-1.365333l0.011011 93.99329-0.066065 6.628473c-0.495484 32.344086-3.479398 53.275527-12.965161 80.119742-15.332473 43.382366-45.590022 86.346323-96.256 129.970925-55.653849 47.924301-128.979957 74.636387-221.007828 79.706839zM666.150538 640.176172c-48.243613-53.484731-85.515011-130.11957-111.291183-230.152258 2.504946-0.302796 4.993376-0.589075 7.46529-0.853333l7.371699-0.754237c109.810237-10.53729 187.325935 13.267957 235.316301 69.444817 53.099355 62.155699 74.840086 135.520344 65.359828 222.235527-90.976344 11.764989-157.894194-8.566366-204.221935-59.920516z"  horiz-adv-x="1024" />

    
    <glyph glyph-name="waiguan" unicode="&#59069;" d="M512 807.913978c234.121634 0 423.913978-189.792344 423.913978-423.913978l-0.022021-4.073978-0.027527-2.092044-0.088086-4.299698-0.137634-4.437334-0.192688-4.569462-0.236732-4.67957-0.29729-4.800688-0.545032-7.388215-0.44043-5.03742-0.495484-5.12-0.561549-5.197075-0.627613-5.257634-0.335827-2.648086-0.72671-5.340215c-0.253247-1.789247-0.517505-3.578495-0.79828-5.384258l-0.869849-5.417291-0.94142-5.439312-1.018494-5.461333-0.539527-2.730667-1.134108-5.472344a381.027097 381.027097 0 0 0-1.585548-7.052387l-1.139613-4.69058c-0.192688-0.781763-0.385376-1.563527-0.589075-2.339785l-1.227699-4.663054a320.423914 320.423914 0 0 0-2.659097-9.249032l-1.431398-4.569463c-14.143312-43.987957-37.926538-82.107183-76.508215-91.994838-25.187097-6.457806-56.259441-4.23914-89.187097 1.266236l-6.606451 1.139613-6.656 1.222194-6.683527 1.288258-6.716559 1.343311-6.733075 1.398366-6.749592 1.431398-12.414623 2.71415-26.739613 5.929291-11.368603 2.460903-5.632 1.189161-8.368172 1.712172-5.532903 1.084559-5.472344 1.035011-5.422796 0.974452-5.362236 0.908387-5.296172 0.842323-5.230108 0.759741a341.938925 341.938925 0 0 1-10.24 1.277248l-4.993376 0.500989c-27.251613 2.482925-50.588903 0.423914-66.637075-10.68043-11.241978-7.773591-11.286022-20.413935-6.110968-35.372043l0.968946-2.664602 0.523011-1.348817 1.112086-2.730667c0.198194-0.456946 0.390882-0.919398 0.594581-1.376344l1.244215-2.791226 2.020473-4.250151 1.431398-2.873806 1.486451-2.901333 3.138065-5.874237 3.292215-5.945806 10.548301-18.652215 2.405849-4.332732 2.339785-4.305204 1.084559-2.048 2.10856-4.073978c6.848688-13.510194 11.875097-26.321204 11.875096-37.07871l-0.01101-1.690151-0.077076-3.385806a143.888516 143.888516 0 0 0-0.704688-10.146409l-0.396387-3.358279C566.982194-8.004817 548.814452-39.913978 512-39.913978c-234.121634 0-423.913978 189.792344-423.913978 423.913978s189.792344 423.913978 423.913978 423.913978z m0-66.064516c-197.637505 0-357.849462-160.211957-357.849462-357.849462 0-193.67914 153.875269-351.424688 346.034924-357.656774l3.881291-0.093592 0.176172 0.550538c1.084559 3.622538 1.926882 8.313118 2.27372 13.587269l0.110108 2.224172-0.253248 0.693677-0.578064 1.458925-0.737721 1.723183-0.759742 1.67914-1.266236 2.670107-1.475441 2.92886-2.339785 4.442839-2.092043 3.853764-4.283183 7.635957-6.843182 12.067784-2.758194 4.932818-3.782194 6.909247-2.301247 4.32172c-7.746065 14.77643-12.442151 26.001892-15.965591 39.115699-10.262022 38.17428-1.811269 76.965161 33.913118 101.678796 30.086882 20.810323 65.497462 26.007398 108.676129 22.280258 2.240688-0.198194 4.448344-0.401892 6.644989-0.627613l6.485334-0.715699 4.822709-0.605591 4.888774-0.671656 4.993377-0.748731 3.413333-0.550538 5.285161-0.897376 5.521893-0.990968 5.802667-1.09557 6.132989-1.205677 6.501849-1.321291 9.337119-1.959914 7.558881-1.624086 19.775312-4.349247 17.380473-3.853763 9.882151-2.136086 5.681548-1.189162 8.192-1.657118 5.230108-1.018495 5.064946-0.946924 4.89428-0.88086 4.718107-0.814796 4.558452-0.743226 4.39329-0.671656 6.28714-0.886366 3.996903-0.506494 3.842753-0.44043 5.483355-0.534022 3.468387-0.275269 3.330752-0.209204 1.60757-0.077075 3.121549-0.110108 2.978408-0.044043h1.442409l2.780215 0.055054c1.816774 0.055054 3.539957 0.154151 5.175054 0.291785l2.405849 0.247742 2.284731 0.308301c1.849806 0.275269 3.578495 0.627613 5.19157 1.046022 8.368172 2.147097 20.127656 17.413505 30.059355 48.337204C864.520258 308.51028 869.849462 349.316129 869.849462 384c0 197.637505-160.211957 357.849462-357.849462 357.849462zM258.752688 433.548387c30.406194 0 55.053763-24.64757 55.053764-55.053763s-24.64757-55.053763-55.053764-55.053764-55.053763 24.64757-55.053763 55.053764 24.64757 55.053763 55.053763 55.053763z m467.956989 126.623656c30.406194 0 55.053763-24.64757 55.053764-55.053763s-24.64757-55.053763-55.053764-55.053764-55.053763 24.64757-55.053763 55.053764 24.64757 55.053763 55.053763 55.053763zM335.827957 626.236559c30.406194 0 55.053763-24.64757 55.053763-55.053763s-24.64757-55.053763-55.053763-55.053764-55.053763 24.64757-55.053763 55.053764 24.64757 55.053763 55.053763 55.053763z m209.204301 71.569893c30.406194 0 55.053763-24.64757 55.053764-55.053764s-24.64757-55.053763-55.053764-55.053763-55.053763 24.64757-55.053763 55.053763 24.64757 55.053763 55.053763 55.053764z"  horiz-adv-x="1024" />

    
    <glyph glyph-name="diliweizhi" unicode="&#59071;" d="M512 807.913978c167.269849 0 302.795699-136.307613 302.795699-304.348215 0-19.186237-2.961892-41.494022-8.48929-66.136086l-0.946925-4.129032-1.524989-6.35871a577.513978 577.513978 0 0 0-4.514409-17.138236l-1.673634-5.84671-1.998452-6.771613-1.040516-3.413333-1.062538-3.429849-2.20215-6.931269-1.717678-5.246624-1.767226-5.285161-2.449892-7.118452-1.255226-3.589505-3.248172-9.034323-0.671656-1.816774-3.424344-9.160946-4.294193-11.12086-4.492387-11.241979-3.892302-9.463742-1.596559-3.804215-3.248172-7.652473-1.651613-3.837247-1.679139-3.853764-3.413334-7.735054-1.739699-3.886795-3.534451-7.795613-3.611527-7.828645-3.688602-7.861678-1.871828-3.941849-3.79871-7.905721-1.926882-3.963871-3.908817-7.944258-3.974882-7.966279-4.046451-7.982796-4.112516-7.999312-4.184086-8.010322-4.244646-8.021334-4.310709-8.026838-4.371269-8.03785-4.250151-7.707527-4.239139-7.613935-4.23914-7.503828-4.222624-7.393721-4.211613-7.283612-4.200602-7.173506-4.184086-7.052387-4.184086-6.936774-4.156559-6.826667-4.151054-6.694537-4.129032-6.57342-4.118022-6.446796-2.048-3.176602-4.090494-6.259613-4.073979-6.121978-4.051957-5.98985-4.035441-5.85772-4.013419-5.720086-3.991398-5.576946-3.969376-5.439312-1.981936-2.664602-3.936344-5.224602-1.959914-2.554495-1.948903-2.521462-3.892301-4.921807-3.721634-4.608-3.705119-4.46486C565.539785-18.101677 536.366796-39.913978 512-39.913978c-21.393892 0-45.182624 13.768946-70.490839 38.62572l-1.948903 1.926882-3.820731 3.903311-3.842753 4.062968a383.493505 383.493505 0 0 0-12.436645 14.071742l-3.138064 3.765678-3.94185 4.844731-1.981935 2.482924-1.981936 2.521463-3.969376 5.147527-1.998452 2.63157-3.996903 5.367742c-1.783742 2.422366-3.567484 4.883269-5.356731 7.382709l-2.692129 3.787699-4.040947 5.797161-4.062967 5.934796-4.068473 6.07243-4.08499 6.204559-4.090494 6.331183-2.053506 3.220645-5.136516 8.186495-5.153032 8.379183-4.134538 6.848688-2.070021 3.468387-4.145549 7.030366-4.151053 7.145978-2.081033 3.617032-4.156559 7.322151-4.16757 7.432258-4.173075 7.553376-4.173075 7.652473-5.252129 9.783054-5.312688 10.063828-4.178581 8.054366-4.112516 8.059871-4.051957 8.054365-3.985893 8.054366-1.970924 4.018925-3.881291 8.043354-3.815225 8.026839-3.743656 8.010323-4.580473 9.981247-4.459355 9.948215-3.484904 7.927742-3.413333 7.89471-1.668129 3.936344-4.096 9.79957-3.969376 9.733505-1.552516 3.875785-3.038968 7.707527-2.950882 7.668989-1.442408 3.815226-1.420388 3.79871-2.780215 7.553376-2.686623 7.498323-1.304774 3.721634-2.54899 7.404731-2.449892 7.333161a834.780215 834.780215 0 0 0-3.121549 9.667441l-1.497462 4.778667-2.163613 7.112946-1.046021 3.523441-2.003957 6.991828-1.910366 6.898237C214.665634 444.11871 209.204301 476.881204 209.204301 503.560258 209.204301 671.617376 344.730151 807.913978 512 807.913978z m0-66.064516c-130.697634 0-236.731183-106.63914-236.731183-238.283699 0-16.103226 2.747183-35.812473 7.850667-58.136774l0.825806-3.545462 1.403871-5.764129 0.737721-2.923355 1.54701-5.91828 1.646108-6.022881 0.858839-3.049979 1.783742-6.166021 1.882838-6.254108 0.974452-3.160086 0.996473-3.182107 2.059011-6.43028 2.70314-8.147957 2.835268-8.274581 2.367312-6.700043 2.449893-6.766107 2.532473-6.826667 2.609548-6.898236 2.697635-6.947785 1.376344-3.495914 2.807742-7.030366 2.884817-7.085419 2.961892-7.123957 1.508473-3.578495 3.072-7.190021 1.563527-3.611527 3.176603-7.23957 1.613075-3.633548 3.281204-7.289119 3.347269-7.316645 3.413333-7.338667 3.484903-7.355182 3.539957-7.377205 3.606022-7.382709 3.666581-7.393721 3.721634-7.399226 3.787699-7.399225 4.806193-9.249033 4.888775-9.238021a1227.346581 1227.346581 0 0 1 29.629935-52.378151l3.72714-6.166021 5.153032-8.373678c16.295914-26.222108 32.415656-49.504344 47.478366-68.437333 13.323011-16.741849 25.434839-29.602409 35.564731-37.876989 3.947355-3.226151 7.39372-5.587957 10.16843-7.074409l0.682667-0.352344 0.247742 0.14314c1.739699 1.101075 3.815226 2.615054 6.149505 4.53643l1.189161 0.990968 1.233205 1.062537c5.26314 4.585978 11.170409 10.553806 17.589677 17.771355l1.943398 2.202151 3.633548 4.228129c3.688602 4.349247 7.514839 9.067355 11.467699 14.126795 14.181849 18.178753 29.47028 40.189247 45.033979 64.748732l2.747183 4.360258 5.219096 8.406709 2.615054 4.266667 2.620559 4.305204 5.230108 8.742538c6.281634 10.581333 12.552258 21.492989 18.767828 32.646882l4.646537 8.423226 4.01342 7.371698 3.958365 7.371699 3.897807 7.366194 3.842752 7.355183 3.782194 7.344172 3.721634 7.327656 3.661076 7.311139 3.59501 7.294624 3.528947 7.267097 3.468387 7.234064 3.396817 7.206538 3.325247 7.173505 3.259183 7.134968 3.187613 7.101936 3.116043 7.046881 3.787699 8.753549 3.672086 8.676473 2.851785 6.88172 2.77471 6.821162 2.692129 6.760602 2.609548 6.700043 2.532473 6.633978 2.444387 6.562409 2.367312 6.496344 1.145118 3.21514 2.77471 7.960774 2.642581 7.839656 2.493935 7.702021 2.356301 7.564387 1.778237 5.945807 1.684645 5.85772 1.591054 5.753119 1.491957 5.654021 1.39286 5.549419 0.660645 2.736173 1.244215 5.384258 0.58357 2.653591 1.09557 5.219097c3.292215 16.339957 5.031914 30.918194 5.031914 43.310795C748.731183 635.204817 642.697634 741.849462 512 741.849462z m2.752688-115.612903c65.370839 0 118.365591-52.994753 118.365592-118.365591S580.123527 389.505376 514.752688 389.505376 396.387097 442.500129 396.387097 507.870968 449.381849 626.236559 514.752688 626.236559z m0-66.064516a52.301075 52.301075 0 1 1 0-104.602151 52.301075 52.301075 0 0 1 0 104.602151z"  horiz-adv-x="1024" />

    
    <glyph glyph-name="icon" unicode="&#59395;" d="M490.496 726.528c-201.216 0-364.032-162.816-364.032-364.032s162.816-364.032 364.032-364.032 364.032 162.816 364.032 364.032-162.816 364.032-364.032 364.032z m0-628.736c-146.432 0-264.704 118.272-264.704 264.704s118.272 264.704 264.704 264.704 264.704-118.272 264.704-264.704c0.512-146.432-118.272-264.704-264.704-264.704zM303.616 175.61599999999999c-48.128 48.128-77.312 114.176-77.312 187.392 0 146.432 118.272 264.704 264.704 264.704V727.04c-201.216 0-364.032-162.816-364.032-364.032 0-98.816 39.424-188.928 103.936-254.464-0.512-0.512 72.704 67.072 72.704 67.072zM863.232 520.192c-20.48 48.128-49.664 91.136-86.528 128.512s-80.384 66.048-128.512 86.528c-49.664 20.992-102.912 31.744-157.184 31.744s-107.52-10.752-157.184-31.744c-48.128-20.48-91.648-49.152-128.512-86.528s-66.048-80.384-86.528-128.512c-20.992-49.664-31.744-102.912-31.744-157.184s10.752-107.52 31.744-157.184c20.48-48.128 49.664-91.648 86.528-128.512s80.384-66.048 128.512-86.528c49.664-20.992 102.912-31.744 157.184-31.744s107.52 10.752 157.184 31.744c48.128 20.48 91.136 49.664 128.512 86.528s66.048 80.384 86.528 128.512c20.992 49.664 31.744 102.912 31.744 157.184s-10.752 107.008-31.744 157.184z m-372.736-521.728c-95.744 0-183.296 37.376-248.32 97.792l73.728 67.072c46.592-40.96 107.52-65.536 174.592-65.536 146.432 0 264.704 118.272 264.704 264.704s-118.272 264.704-264.704 264.704-264.704-118.272-264.704-264.704c0-64.512 23.04-123.904 61.952-169.984l-73.216-67.072c-54.784 63.488-87.552 146.432-87.552 236.544 0 201.216 162.816 364.032 364.032 364.032S855.04 563.2 855.04 361.98400000000004s-163.328-363.52-364.544-363.52z m-224.768 364.032c0 123.904 100.864 224.768 224.768 224.768s224.768-100.864 224.768-224.768-100.864-224.768-224.768-224.768-224.768 100.864-224.768 224.768zM490.496 789.504c235.52 0 426.496-190.976 426.496-426.496H486.4l4.096 426.496zM675.328 747.52c98.816-78.336 162.304-199.168 162.304-334.848h-350.72l-0.512-50.176h431.104c0 169.984-98.816 316.416-242.176 385.024zM917.504 342.528H486.4c-5.12 0-10.752 2.048-14.336 6.144-3.584 3.584-5.632 8.704-5.632 14.336l4.608 426.496c0 10.752 9.216 19.968 19.968 19.968 60.416 0 118.784-11.776 174.08-35.328 53.248-22.528 100.864-54.784 141.824-95.744s73.216-88.576 95.744-141.824c23.552-55.296 35.328-113.664 35.328-174.08-0.512-10.752-9.728-19.968-20.48-19.968z m-411.136 39.936h390.656c-10.24 208.384-178.176 376.32-386.56 386.048 0 0.512-4.096-386.048-4.096-386.048z"  horiz-adv-x="1024" />

    
    <glyph glyph-name="shuangzhoutu-" unicode="&#58898;" d="M79.6 35.1h866.8v-35.3H79.6zM983.7 769h35.3v-769.2h-35.3zM4.9 769h35.3v-769.2H4.9zM685.7 95.1L305.2 557c-7 8.5-18.9 9.2-26.7 1.6L111.9 396.4c-7.8-7.6-19.8-6.9-26.8 1.6l-9.3 11.4c-7 8.5-6.3 21.5 1.5 29.1l205.2 199.8c7.8 7.6 19.8 6.9 26.7-1.6L687.9 177c7.2-8.8 19.8-9.2 27.5-0.9l193.1 208.4c7.4 8 19.4 8 26.8-0.1l9.9-10.8c7.4-8.1 7.3-21.2-0.1-29.2l-232-250.2c-7.7-8.3-20.2-7.9-27.4 0.9zM944.6 452.6l-8.9 11.7c-6.7 8.8-18.6 10-26.7 2.7l-81.8-77.8c-7.2-6.5-17.6-6.3-24.6 0.4L652 562.9c2.8 7.5 4.3 15.6 4.3 24.1 0 38.2-30.9 69.1-69.1 69.1-38.2 0-69.1-30.9-69.1-69.1 0-4.9 0.5-9.7 1.5-14.3L104.5 233.8c-8.4-6.8-10.1-19.8-3.8-28.9l8.4-12.2c6.3-9.1 18.2-11 26.5-4.1L551.3 528c10.5-6.4 22.8-10.1 35.9-10.1 11.3 0 22 2.7 31.4 7.6l183-210c7-6.7 17.4-6.9 24.6-0.4l115.9 108.6c8.1 7.1 9.2 20.2 2.5 28.9z m-357.4 101c-18 0-32.6 14.6-32.6 32.6s14.6 32.6 32.6 32.6 32.6-14.6 32.6-32.6-14.6-32.6-32.6-32.6z"  horiz-adv-x="1024" />

    
    <glyph glyph-name="tiaoxingtu" unicode="&#59474;" d="M64 791.9c0 1.3 0.5 2.6 1.5 3.6s2.3 1.5 3.6 1.5H101c1.3 0 2.6-0.5 3.6-1.5s1.5-2.3 1.5-3.6V13H955c1.3 0 2.6-0.5 3.6-1.5s1.5-2.3 1.5-3.6V-24c0-1.3-0.5-2.6-1.5-3.6s-2.3-1.5-3.6-1.5H64v821zM874.9 446.9c3.9 0 7.7-1.5 10.7-4.4 3-3 4.4-6.8 4.4-10.7v-137.7c0-3.9-1.5-7.7-4.4-10.7-3-3-6.8-4.4-10.7-4.4H162V446.9h712.9zM664.9 656.9c3.9 0 7.7-1.5 10.7-4.4 3-3 4.4-6.8 4.4-10.7v-137.7c0-3.9-1.5-7.7-4.4-10.7-3-3-6.8-4.4-10.7-4.4H162V656.9h502.9zM454.9 236.9c3.9 0 7.7-1.5 10.7-4.4 3-3 4.4-6.8 4.4-10.7v-137.7c0-3.9-1.5-7.7-4.4-10.7-3-3-6.8-4.4-10.7-4.4H162V236.9h292.9z"  horiz-adv-x="1024" />

    
    <glyph glyph-name="yujuetu" unicode="&#58912;" d="M524.59 147.58c120.67 5.37 217 104.94 217 226.56 0 125.06-101.82 226.81-227 226.81-113.06 0-209.76-85.4-224.79-196.34l-71.15 9.61C240 562.54 365.56 673.17 514.58 673.17c165 0 299.18-136.09 299.18-303.37 0-163.93-128.89-297.91-289.31-303.21zM514.58 662.85c159.28 0 288.87-131.47 288.87-293.06 0-154.7-118.77-281.79-268.66-292.35l0.11 60.44c121.36 10.33 217 112.35 217 236.26 0 130.75-106.45 237.12-237.28 237.12-114.71 0-213.32-84.09-233.4-195.08l-50.7 6.82c24.85 138.06 143.64 239.83 284.05 239.83m0 20.63c-159.06 0-290-121.63-307.46-278.12L298.88 393c9.57 110.73 102.41 197.66 215.7 197.66 119.65 0 216.65-96.93 216.65-216.49s-97-216.49-216.65-216.49h-0.28l-0.18-101.56h0.46c170.93 0 309.5 140.44 309.5 313.69s-138.57 313.67-309.5 313.67zM512 830.49C268.42 830.49 71 630.58 71 384a451.6 451.6 0 0 1 17.28-123.84l97.18 0.12a352.15 352.15 0 0 0-21.65 121.92c0 194.35 157 351.89 350.77 351.89S865.35 576.55 865.35 382.2s-157-351.9-350.77-351.9h-0.45l-0.26-92.81C756.59-61.47 953 138 953 384c0 246.58-197.42 446.49-441 446.49z m22.57-871.75l0.14 51.47C730.18 20.73 886 183.56 886 382.2c0 205.41-166.61 372.53-371.4 372.53S143.18 587.62 143.18 382.2a373.08 373.08 0 0 1 13.92-101.32l-53-0.07A431.29 431.29 0 0 0 91.6 384C91.6 618.81 280.19 809.86 512 809.86S932.4 618.81 932.4 384c0-226.79-176.63-413.3-397.83-425.26zM597.11 363.83a82.45 82.45 0 0 0-82.53-82.37h-0.21l-0.2-98h0.41c96.86 0 175.38 79.6 175.38 177.8S611.44 539 514.58 539c-56 0-105.74-26.7-137.85-68.12l72.74-56.61a82.5 82.5 0 0 0 147.64-50.5zM447.48 442l-40.78 31.75a152.35 152.35 0 0 0 107.88 44.66c85.33 0 154.75-70.51 154.75-157.17 0-79.69-58.69-145.71-134.48-155.83l0.12 57.42a103.22 103.22 0 0 1 82.78 101c0 56.8-46.28 103-103.17 103a102.4 102.4 0 0 1-67.1-24.83z"  horiz-adv-x="1024" />

    
    <glyph glyph-name="ashbin" unicode="&#59031;" d="M874.666667 654.933333h-202.666667V725.333333c0 40.533333-34.133333 74.666667-74.666667 74.666667h-170.666666c-40.533333 0-74.666667-34.133333-74.666667-74.666667v-70.4H149.333333c-17.066667 0-32-14.933333-32-32s14.933333-32 32-32h53.333334V42.666667c0-40.533333 34.133333-74.666667 74.666666-74.666667h469.333334c40.533333 0 74.666667 34.133333 74.666666 74.666667V590.933333H874.666667c17.066667 0 32 14.933333 32 32s-14.933333 32-32 32zM416 725.333333c0 6.4 4.266667 10.666667 10.666667 10.666667h170.666666c6.4 0 10.666667-4.266667 10.666667-10.666667v-70.4h-192V725.333333z m341.333333-682.666666c0-6.4-4.266667-10.666667-10.666666-10.666667H277.333333c-6.4 0-10.666667 4.266667-10.666666 10.666667V586.666667h490.666666V42.666667zM426.666667 160c17.066667 0 32 14.933333 32 32V405.333333c0 17.066667-14.933333 32-32 32s-32-14.933333-32-32v-213.333333c0-17.066667 14.933333-32 32-32zM597.333333 160c17.066667 0 32 14.933333 32 32V405.333333c0 17.066667-14.933333 32-32 32s-32-14.933333-32-32v-213.333333c0-17.066667 14.933333-32 32-32z"  horiz-adv-x="1024" />

    
    <glyph glyph-name="add" unicode="&#59037;" d="M148.567863 747.432137c-198.090484-198.090484-198.090484-523.981279 0-722.071763 198.090484-198.090484 523.981279-198.090484 722.071763 0 198.090484 198.090484 198.090484 523.981279 0 722.071763C672.549142 945.522621 353.048362 945.522621 148.567863 747.432137L148.567863 747.432137zM825.909516 70.090484c-178.920437-178.920437-453.691108-178.920437-632.611544 0-178.920437 178.920437-178.920437 453.691108 0 632.611544 178.920437 178.920437 453.691108 178.920437 632.611544 0C1004.829953 523.781591 1004.829953 242.620905 825.909516 70.090484L825.909516 70.090484zM544.74883 415.151326l0 255.600624c0 19.170047-12.780031 31.950078-31.950078 31.950078-19.170047 0-31.950078-12.780031-31.950078-31.950078l0-255.600624-255.600624 0C212.468019 415.151326 199.687988 402.371295 199.687988 383.201248c0-19.170047 12.780031-31.950078 31.950078-31.950078l255.600624 0 0-255.600624c0-19.170047 12.780031-31.950078 31.950078-31.950078 19.170047 0 31.950078 12.780031 31.950078 31.950078l0 255.600624 255.600624 0c19.170047 0 31.950078 12.780031 31.950078 31.950078 0 19.170047-12.780031 31.950078-31.950078 31.950078L544.74883 415.151326 544.74883 415.151326zM544.74883 415.151326"  horiz-adv-x="1024" />

    
    <glyph glyph-name="edit" unicode="&#59038;" d="M924.328-65.625H99.672a37.484 37.484 0 0 0 0 74.969h824.656a37.484 37.484 0 0 0 0-74.97zM196.756 67.07a74.969 74.969 0 0 0-71.97 54.727 71.595 71.595 0 0 0 0 41.607l49.855 157.06a37.484 37.484 0 0 0 8.996 14.619L352.69 511.634 618.081 777.4a112.453 112.453 0 0 0 158.934 0l53.227-53.228a112.453 112.453 0 0 0 0-158.934L564.853 300.222l-169.43-176.176a37.484 37.484 0 0 0-17.242-10.121l-161.558-43.857a70.845 70.845 0 0 0-19.867-2.998z m45.731 222.657l-45.73-147.689 151.811 41.608L512 352.701l149.938 151.811-104.582 104.582L407.42 459.156z m125.948-139.442zM610.584 663.82l106.08-106.08 60.35 60.349a37.484 37.484 0 0 1 0 53.228l-52.852 52.853a37.484 37.484 0 0 1-53.228 0z"  horiz-adv-x="1024" />

    
    <glyph glyph-name="view" unicode="&#59039;" d="M523.562 117.543c-134.736 0-271.484 65.861-417.786 198.082-5.028 4.525-10.054 8.548-14.077 12.066-17.093 14.58-28.155 24.634-28.657 41.729-0.502 17.093 10.054 27.651 26.142 44.24l12.066 12.066c138.758 144.289 273.495 215.177 412.756 217.187 138.257 2.011 273.495-64.353 414.768-202.608 25.639-25.139 39.214-42.733 39.214-63.849 0-22.624-17.093-39.214-33.182-54.799-140.268-136.244-274.501-204.116-411.25-204.116z m-405.717 253.89c2.011-2.011 4.525-4.022 6.537-6.032 4.022-3.518 9.05-8.043 14.58-12.567 135.744-122.167 258.916-182.999 376.559-185.012 124.178-2.513 249.869 59.826 384.1 189.538 4.525 4.525 15.584 15.084 18.098 19.607-1.508 3.018-6.537 10.559-24.132 28.155-131.216 128.202-254.894 190.039-379.073 188.029-125.185-2.011-248.358-67.871-377.061-201.602-4.525-5.028-9.05-9.05-12.567-13.072a46.641 46.641 0 0 0-7.041-7.041zM515.518 229.657c-82.955 0-150.825 67.871-150.825 150.825s67.871 150.825 150.825 150.825 150.825-67.871 150.825-150.825-67.369-150.825-150.825-150.825z m0 251.373c-55.805 0-101.053-45.248-101.053-101.053s45.248-101.053 101.053-101.053 101.053 45.248 101.053 101.053S571.323 481.03 515.518 481.03z"  horiz-adv-x="1024" />

    
    <glyph glyph-name="user" unicode="&#59012;" d="M916.892485 98.363455a441.502821 441.502821 0 0 1-233.79116 233.79116q-7.592766 3.301202-15.31758 6.173249a293.014733 293.014733 0 1 1-311.534478 0q-7.724814-2.93807-15.31758-6.173249A439.059931 439.059931 0 0 1 72.510913-72.704858a36.643348 36.643348 0 0 1 73.220671 0 366.235404 366.235404 0 1 0 732.470808 0 36.643348 36.643348 0 1 1 73.220671 0 437.805474 437.805474 0 0 1-34.530578 171.068313zM356.843483 431.025629a219.959122 219.959122 0 1 0 155.420613-64.340436 219.959122 219.959122 0 0 0-155.420613 64.340436z"  horiz-adv-x="1024" />

    
    <glyph glyph-name="pass" unicode="&#59013;" d="M871.625443-119.53941H152.374557a33.909508 33.909508 0 0 0-35.923934 35.856787V490.328131a33.909508 33.909508 0 0 0 35.923934 35.856787h719.217312a33.909508 33.909508 0 0 0 35.923934-35.856787v-573.943606a33.909508 33.909508 0 0 0-35.923934-35.856787zM188.466361-47.792262h647.302295V454.16918H188.466361z m323.550426 282.523278a71.747148 71.747148 0 1 0 50.864262 20.882886 71.747148 71.747148 0 0 0-50.864262-20.882886z m251.803279 222.359082a34.043803 34.043803 0 0 0-36.05823 35.856787v34.883148h72.015738v-34.983869a34.043803 34.043803 0 0 0-35.923935-35.856787z m-503.841574 0a34.043803 34.043803 0 0 0-36.05823 35.756066v100.721311a294.475541 294.475541 0 0 0 287.928656 294.10623 287.928656 287.928656 0 0 0 286.417836-259.693115h-72.620065a225.54859 225.54859 0 0 1-58.85482 123.41718 232.028328 232.028328 0 0 1-154.741508 64.327345 216.886557 216.886557 0 0 1-215.946492-222.15764v-100.721311a34.043803 34.043803 0 0 0-35.991082-35.856787z m222.526951-152.492065h38.710557a34.245246 34.245246 0 0 0 38.710557-38.710558v-154.94295a38.844852 38.844852 0 1 0-77.421114 0V265.820328a34.245246 34.245246 0 0 0 38.945573 38.710557z"  horiz-adv-x="1024" />

    
    <glyph glyph-name="ware" unicode="&#59014;" d="M505.302033-41.547541H127.865705a39.147016 39.147016 0 0 0-39.012721 39.046295V770.501246a39.147016 39.147016 0 0 0 39.012721 39.046295h308.475803v-145.743738a117.27318 117.27318 0 0 1 117.105312-117.105311h157.393836v-88.500459a39.046295 39.046295 0 0 1 78.059016 0v95.819541a117.508197 117.508197 0 0 1-35.957508 84.471606l-225.380721 216.450099A116.400262 116.400262 0 0 1 446.480787 887.606557h-318.615082A117.27318 117.27318 0 0 1 10.793967 770.501246v-773.002492a117.27318 117.27318 0 0 1 117.105312-117.105311h377.402754a39.046295 39.046295 0 1 1 0 78.059016z m149.403278 666.305049h-101.258491a39.147016 39.147016 0 0 0-38.878427 39.046295V759.421902zM180.307934 577.519213h148.496787v-49.42059H180.307934z m0-145.475147h344.332591v-49.487738H180.307934z m0-145.475148h344.332591v-49.487738H180.307934z m0-145.475148h344.332591v-49.487737H180.307934z m641.561181-142.084196h23.669508a23.501639 23.501639 0 0 1 23.669508 23.669508v23.669508a23.501639 23.501639 0 0 1-23.669508 23.669508h-23.669508a23.501639 23.501639 0 0 1-23.669508-23.669508v-23.669508a23.501639 23.501639 0 0 1 23.669508-23.669508z m-94.409443 71.209967h-24.173115a23.501639 23.501639 0 0 1-23.669508-23.669508v-23.669508a23.870951 23.870951 0 0 1 6.916197-16.786886 23.501639 23.501639 0 0 1 16.786885-6.916196h23.669508a23.501639 23.501639 0 0 1 23.669509 23.669508v23.669508a23.870951 23.870951 0 0 1-6.916197 16.786885 24.676721 24.676721 0 0 1-16.551869 6.714754z m275.741377 133.287869l-207.754492 167.633836a34.54741 34.54741 0 0 1-41.49718 0l-207.754492-167.633836a20.715016 20.715016 0 0 1 0-33.573771 34.54741 34.54741 0 0 1 38.878426-2.014426v-240.052459a23.870951 23.870951 0 0 1 6.916197-16.786885 23.501639 23.501639 0 0 1 16.786885-6.916197h331.708853a23.501639 23.501639 0 0 1 23.669508 23.669508v240.086033a34.816 34.816 0 0 1 38.912 1.947279 20.580721 20.580721 0 0 1 0 33.57377z m-86.318164-251.803279h-284.369836v254.187017l142.218492 114.755147 142.084197-114.654426z m-189.49036 236.963672h-24.105968a23.669508 23.669508 0 0 1-23.669508-23.669508v-23.669508a23.501639 23.501639 0 0 1 23.669508-23.669508h23.669509a23.501639 23.501639 0 0 1 23.669508 23.669508v23.669508a23.669508 23.669508 0 0 1-23.50164 23.938098z"  horiz-adv-x="1024" />

    
    <glyph glyph-name="warning" unicode="&#59446;" d="M512 832C264.64 832 64 631.36 64 384c0-247.424 200.64-448 448-448 247.488 0 448 200.576 448 448C960 631.36 759.488 832 512 832zM512 128c-26.432 0-48 21.504-48 48S485.568 224 512 224c26.624 0 48-21.504 48-48S538.624 128 512 128zM560 368C560 341.44 538.624 320 512 320 485.568 320 464 341.44 464 368l0 224C464 618.56 485.568 640 512 640c26.624 0 48-21.44 48-48L560 368z"  horiz-adv-x="1024" />

    
    <glyph glyph-name="back" unicode="&#58894;" d="M156.608 408.141c1.156 1.137 2.649 1.622 3.919 2.559l306.667 301.569c13.196 12.971 34.587 12.971 47.781 0 13.195-12.978 13.195-34.014 0-46.988l-251.673-247.491h579.203c18.978 0 34.363-15.129 34.363-33.79 0-18.662-15.385-33.793-34.363-33.793h-579.203l251.671-247.487c13.195-12.972 13.195-34.011 0-46.985-13.195-12.975-34.587-12.975-47.781 0l-306.667 301.562c-1.269 0.94-2.763 1.422-3.919 2.562-6.335 6.23-9.241 14.34-9.477 22.502 0.238 11.438 3.143 19.548 9.478 25.779v0zM156.608 408.141z"  horiz-adv-x="1024" />

    
    <glyph glyph-name="document" unicode="&#59056;" d="M352 160h-32c-17.6 0-32 14.4-32 32s14.4 32 32 32h32c17.6 0 32-14.4 32-32s-14.4-32-32-32zM352 416h-32c-17.6 0-32 14.4-32 32s14.4 32 32 32h32c17.6 0 32-14.4 32-32s-14.4-32-32-32zM704 160H480c-17.6 0-32 14.4-32 32s14.4 32 32 32h224c17.6 0 32-14.4 32-32s-14.4-32-32-32zM704 416H480c-17.6 0-32 14.4-32 32s14.4 32 32 32h224c17.6 0 32-14.4 32-32s-14.4-32-32-32zM800-64H224c-52.8 0-96 43.2-96 96V672c0 52.8 43.2 96 96 96 17.6 0 32-14.4 32-32s-14.4-32-32-32-32-14.4-32-32v-640c0-17.6 14.4-32 32-32h576c17.6 0 32 14.4 32 32V672c0 17.6-14.4 32-32 32s-32 14.4-32 32 14.4 32 32 32c52.8 0 96-43.2 96-96v-640c0-52.8-43.2-96-96-96zM608 640H416c-52.8 0-96 43.2-96 96s43.2 96 96 96h192c52.8 0 96-43.2 96-96s-43.2-96-96-96zM416 768c-17.6 0-32-14.4-32-32s14.4-32 32-32h192c17.6 0 32 14.4 32 32s-14.4 32-32 32H416z"  horiz-adv-x="1024" />

    
    <glyph glyph-name="scan" unicode="&#58945;" d="M810.666667 682.666667h-128a42.666667 42.666667 0 0 0 0 85.333333h170.666666a42.666667 42.666667 0 0 0 42.666667-42.666667v-170.666666a42.666667 42.666667 0 0 0-85.333333 0V682.666667zM213.333333 682.666667v-128a42.666667 42.666667 0 1 0-85.333333 0V725.333333a42.666667 42.666667 0 0 0 42.666667 42.666667h170.666666a42.666667 42.666667 0 1 0 0-85.333333H213.333333z m597.333334-597.333334v128a42.666667 42.666667 0 0 0 85.333333 0v-170.666666a42.666667 42.666667 0 0 0-42.666667-42.666667h-170.666666a42.666667 42.666667 0 0 0 0 85.333333h128zM213.333333 85.333333h128a42.666667 42.666667 0 0 0 0-85.333333H170.666667a42.666667 42.666667 0 0 0-42.666667 42.666667v170.666666a42.666667 42.666667 0 0 0 85.333333 0v-128z m85.333334 256a42.666667 42.666667 0 0 0 0 85.333334h426.666666a42.666667 42.666667 0 0 0 0-85.333334H298.666667z"  horiz-adv-x="1024" />

    
    <glyph glyph-name="close" unicode="&#58881;" d="M511.6928 424.0384l140.8 140.8c11.0592 11.0592 29.0816 11.0592 40.2432 0 11.0592-11.0592 11.0592-29.0816 0-40.2432L551.8336 383.7952l140.8-140.8c11.0592-11.0592 11.0592-29.0816 0-40.2432s-29.0816-11.0592-40.2432 0L511.6928 343.552 370.8928 202.752c-11.0592-11.0592-29.0816-11.0592-40.2432 0-11.0592 11.0592-11.0592 29.0816 0 40.2432l140.8 140.8-140.8 140.8c-11.0592 11.0592-11.0592 29.0816 0 40.2432 11.0592 11.0592 29.0816 11.0592 40.2432 0l140.8-140.8zM512-14.2336c219.9552 0 398.2336 178.2784 398.2336 398.2336S731.9552 782.2336 512 782.2336 113.7664 603.9552 113.7664 384 292.0448-14.2336 512-14.2336z m0-56.832c-251.392 0-455.0656 203.776-455.0656 455.0656S260.608 839.0656 512 839.0656s455.0656-203.776 455.0656-455.0656S763.392-71.0656 512-71.0656z"  horiz-adv-x="1024" />

    
    <glyph glyph-name="fangda" unicode="&#58924;" d="M806-15H218c-57.9 0-105 47.1-105 105V678c0 57.9 47.1 105 105 105h588c57.9 0 105-47.1 105-105v-588c0-57.9-47.1-105-105-105zM218 741c-34.7 0-63-28.3-63-63v-588c0-34.7 28.3-63 63-63h588c34.7 0 63 28.3 63 63V678c0 34.7-28.3 63-63 63H218zM593.3 444.4c-5.4 0-10.7 2.1-14.8 6.1-8.2 8.2-8.3 21.5-0.1 29.7l155 155.8c8.2 8.2 21.5 8.2 29.7 0.1 8.2-8.2 8.3-21.5 0.1-29.7l-155-155.8c-4.1-4.1-9.5-6.2-14.9-6.2zM281 132.1c-5.4 0-10.7 2-14.8 6.1-8.2 8.2-8.3 21.5-0.1 29.7l155 155.8c8.2 8.2 21.5 8.3 29.7 0.1 8.2-8.2 8.3-21.5 0.1-29.7l-155-155.8c-4.1-4.2-9.5-6.2-14.9-6.2zM773.6 624.2h-126c-11.6 0-21 9.4-21 21s9.4 21 21 21h126c11.6 0 21-9.4 21-21s-9.4-21-21-21zM773.6 498.2c-11.6 0-21 9.4-21 21v126c0 11.6 9.4 21 21 21s21-9.4 21-21v-126c0-11.6-9.4-21-21-21zM375.7 100.3h-126c-11.6 0-21 9.4-21 21s9.4 21 21 21h126c11.6 0 21-9.4 21-21s-9.4-21-21-21zM249.7 100.3c-11.6 0-21 9.4-21 21v126c0 11.6 9.4 21 21 21s21-9.4 21-21v-126c0-11.6-9.4-21-21-21z"  horiz-adv-x="1024" />

    
    <glyph glyph-name="suoxiao" unicode="&#58927;" d="M806-15H218c-57.9 0-105 47.1-105 105V678c0 57.9 47.1 105 105 105h588c57.9 0 105-47.1 105-105v-588c0-57.9-47.1-105-105-105zM218 741c-34.7 0-63-28.3-63-63v-588c0-34.7 28.3-63 63-63h588c34.7 0 63 28.3 63 63V678c0 34.7-28.3 63-63 63H218zM614.3 465.4c-5.4 0-10.7 2.1-14.8 6.1-8.2 8.2-8.3 21.5-0.1 29.7l155 155.8c8.2 8.2 21.5 8.2 29.7 0.1 8.2-8.2 8.3-21.5 0.1-29.7l-155-155.8c-4.1-4.1-9.5-6.2-14.9-6.2zM239 90.1c-5.4 0-10.7 2-14.8 6.1-8.2 8.2-8.3 21.5-0.1 29.7l155 155.8c8.2 8.2 21.5 8.3 29.7 0.1 8.2-8.2 8.3-21.5 0.1-29.7l-155-155.8c-4.1-4.2-9.5-6.2-14.9-6.2zM427.2 278.8h-126c-11.6 0-21 9.4-21 21s9.4 21 21 21h126c11.6 0 21-9.4 21-21s-9.4-21-21-21zM427.2 152.8c-11.6 0-21 9.4-21 21v126c0 11.6 9.4 21 21 21s21-9.4 21-21v-126c0-11.6-9.4-21-21-21zM713.7 437.8h-126c-11.6 0-21 9.4-21 21s9.4 21 21 21h126c11.6 0 21-9.4 21-21s-9.4-21-21-21zM587.7 437.8c-11.6 0-21 9.4-21 21v126c0 11.6 9.4 21 21 21s21-9.4 21-21v-126c0-11.6-9.4-21-21-21z"  horiz-adv-x="1024" />

    
    <glyph glyph-name="tianjia" unicode="&#59015;" d="M842 834H182c-66 0-120-54-120-120v-660c0-66 54-120 120-120h660c66 0 120 54 120 120V714c0 66-54 120-120 120z m30-750c0-33-27-60-60-60H212c-33 0-60 27-60 60V684c0 33 27 60 60 60h600c33 0 60-27 60-60v-600zM737 429H557V609c0 24.8-20.2 45-45 45s-45-20.2-45-45v-180H287c-24.8 0-45-20.2-45-45s20.2-45 45-45h180v-180c0-24.8 20.2-45 45-45s45 20.2 45 45V339h180c24.8 0 45 20.2 45 45s-20.2 45-45 45z"  horiz-adv-x="1024" />

    
    <glyph glyph-name="tongguo" unicode="&#59032;" d="M888.832 332.3c-11.286 11.286-29.855 11.286-41.142 0l-259.596-259.596-122.576 122.576c-11.286 11.286-29.855 11.286-41.142 0s-11.286-29.855 0-41.142l143.209-143.209c11.286-11.286 29.855-11.286 41.142 0l280.227 280.227c11.165 11.286 11.165 29.855-0.122 41.142zM383.113 91.273h-169.908c-16.020 0-29.127 13.107-29.127 29.127v550.988c0 16.020 13.107 29.127 29.127 29.127h550.988c16.020 0 29.127-13.107 29.127-29.127v-251.221c0-16.142 12.986-29.127 29.127-29.127s29.127 12.986 29.127 29.127v251.221c0 48.181-39.2 87.381-87.381 87.381h-550.988c-48.181 0-87.381-39.2-87.381-87.381v-550.988c0-48.181 39.2-87.381 87.381-87.381h169.908c16.142 0 29.127 12.986 29.127 29.127s-12.986 29.127-29.127 29.127zM670.742 604.274h-348.311c-16.020 0-29.127-13.107-29.127-29.127s13.107-29.127 29.127-29.127h348.311c16.020 0 29.127 13.107 29.127 29.127s-13.107 29.127-29.127 29.127zM670.742 463.857h-348.311c-16.020 0-29.127-13.107-29.127-29.127s13.107-29.127 29.127-29.127h348.311c16.020 0 29.127 13.107 29.127 29.127s-13.107 29.127-29.127 29.127zM670.742 323.318h-348.311c-16.020 0-29.127-13.107-29.127-29.127s13.107-29.127 29.127-29.127h348.311c16.020 0 29.127 13.107 29.127 29.127s-13.107 29.127-29.127 29.127z"  horiz-adv-x="1024" />

    
    <glyph glyph-name="shijian" unicode="&#58928;" d="M546.688 401.31584V525.6448a34.68288 34.68288 0 0 1-34.69312 34.67776 34.66752 34.66752 0 0 1-34.6624-34.67776v-153.0624l148.85888-148.85376a34.56 34.56 0 0 1 24.51456-10.15808 34.56 34.56 0 0 1 24.50944 10.15808 34.65216 34.65216 0 0 1 0 49.02912l-128.52736 128.55808zM835.10272 589.02528l-73.35936-15.7952c38.94784-52.06016 62.35136-116.41344 62.35136-186.28096 0-172.08832-140.01152-312.09472-312.09984-312.09472-172.0576 0-312.07936 140.0064-312.07936 312.09472 0 172.06272 140.02176 312.07936 312.07936 312.07936 17.45408 0 34.54976-1.5616 51.18976-4.3776l-18.66752-67.74784 193.31072 50.29376-140.2368 142.2592-15.85664-57.51808a378.4192 378.4192 0 0 1-69.74464 6.44608C301.3376 768.384 130.56 597.6064 130.56 386.94912c0-210.688 170.7776-381.45024 381.43488-381.45024 210.688 0 381.45024 170.76224 381.45024 381.45024 0 74.33216-21.4784 143.50848-58.3424 202.07616z"  horiz-adv-x="1024" />

    
    <glyph glyph-name="yibiaopan" unicode="&#59272;" d="M512 704c212 0 384-170.4 384-380.8 0-88.416-30.56-172.224-85.376-239.392l-27.936-32.896-49.312 42.336 19.68 21.632 1.92 2.176a313.472 313.472 0 0 1 76.448 186.912L752 304v64h76.8a313.856 313.856 0 0 1-68.48 155.04l-46.944-46.912-45.248 45.248 46.784 46.816A320.192 320.192 0 0 1 544 638.4L544 544h-64V638.432c-64.544-6.336-123.424-31.68-170.88-70.24l46.752-46.816-45.248-45.248-46.944 46.912A313.856 313.856 0 0 1 195.2 368h76.8v-64H192.576c4-66.912 28.864-129.664 69.824-178.432l28.352-32.32-47.776-42.336-21.024 23.68C162.048 140.736 128 229.6 128 323.232 128 533.6 300 704 512 704z m118.464-252.48l45.376-45.152-102.592-102.144c5.696-21.28 0.224-44.8-16.48-61.536a63.648 63.648 0 0 0-90.08 0 63.648 63.648 0 0 0 0 90.08 63.488 63.488 0 0 0 56.16 17.664l5.376-1.184 102.24 102.272z"  horiz-adv-x="1024" />

    
    <glyph glyph-name="guanbi" unicode="&#59016;" d="M399.1552 758.08768a40.96 40.96 0 0 0-22.97856-53.16608A368.76288 368.76288 0 0 1 143.36 362.0864a368.64 368.64 0 0 1 737.28 0c0 151.552-92.28288 285.9008-230.35904 341.85216a40.96 40.96 0 0 0 30.72 75.93984A450.64192 450.64192 0 0 0 962.56 362.0864c0-248.832-201.728-450.56-450.56-450.56s-450.56 201.728-450.56 450.56c0 186.368 114.19648 351.4368 284.54912 418.97984a40.96 40.96 0 0 0 53.16608-22.97856zM512 896a40.96 40.96 0 0 0 40.96-40.96v-491.52a40.96 40.96 0 0 0-81.92 0V855.04a40.96 40.96 0 0 0 40.96 40.96z"  horiz-adv-x="1024" />

    
    <glyph glyph-name="sheji" unicode="&#59017;" d="M133.92 172.8l166.816-166.88-229.888-63.072 63.04 229.92z m609.024 198.72c2.944 1.984 5.888 1.504 8.832-1.44l228.096-228.096 1.472-1.76c1.952-2.944 1.472-5.888-1.472-8.832l-183.264-183.264-1.76-1.472c-2.944-1.952-5.888-1.472-8.832 1.472l-39.264 39.264-1.472 1.76c-1.952 2.944-1.472 5.888 1.472 8.832l128.96 128.96-44.288 44.288-125.056-125.056-1.76-1.472c-2.944-1.952-5.888-1.472-8.832 1.472l-39.52 39.552-1.472 1.76c-1.984 2.944-1.472 5.856 1.472 8.8l125.024 125.056-44.256 44.288-128.96-128.96-1.76-1.472c-2.944-1.92-5.888-1.472-8.832 1.472l-39.552 39.552-1.472 1.76c-1.92 2.944-1.472 5.888 1.472 8.832l183.264 183.264zM643.52 693.92l178.368-178.368-493.056-493.056-178.368 178.368L643.52 693.888zM259.392 849.6c3.52 3.52 7.04 3.52 10.56 0l228.128-228.096c3.52-3.52 3.52-7.04 0-10.56l-183.264-183.264c-3.52-3.52-7.04-3.52-10.56 0L264.96 466.944c-3.52 3.52-3.52 7.04 0 10.56l128.96 128.96-44.288 44.288-125.056-125.056c-3.52-3.52-7.04-3.52-10.56 0L174.4 565.248c-3.52 3.52-3.52 7.04 0 10.592L299.52 700.896 255.2 745.184l-128.96-128.96c-3.52-3.52-7.04-3.52-10.56 0L76.128 655.776c-3.52 3.52-3.52 7.04 0 10.56z m495.456-44.384c25.088 25.088 64.16 26.72 87.264 3.648l94.72-94.752c23.104-23.104 21.472-62.176-3.616-87.264l-89.024-89.024-178.368 178.368z"  horiz-adv-x="1024" />

    
    <glyph glyph-name="shuju" unicode="&#58888;" d="M466.986667 22.026667a341.333333 341.333333 0 0 0-26.666667 678.346666 32 32 0 0 1 27.52 31.626667 32 32 0 0 1-36.8 31.68 405.333333 405.333333 0 1 1 459.626667-459.2 32 32 0 0 1-32 36.853333 32 32 0 0 1-31.68-27.573333 341.76 341.76 0 0 0-360-291.733333zM577.333333 746.666667a298.986667 298.986667 0 0 0 298.666667-298.666667h-298.666667V746.666667m0 64a64 64 0 0 1-64-64v-298.666667a64 64 0 0 1 64-64h298.666667a64 64 0 0 1 64 64 362.666667 362.666667 0 0 1-362.666667 362.666667z"  horiz-adv-x="1024" />

    
    <glyph glyph-name="xiaoshuai" unicode="&#58911;" d="M512 576c173.504 0 320-143.264 320-320v-32c0-17.664-15.424-32-34.688-32-15.424 0-30.848 14.336-30.848 32v32c0 141.376-115.68 256-254.464 256-142.656 0-258.304-114.624-258.304-256v-32c0-17.664-15.424-32-30.848-32C203.52 192 192 206.336 192 224v32c0 176.736 142.656 320 320 320z m111.808-166.4c14.304-9.856 18.656-27.84 9.952-41.696l-63.936-86.72c3.84-7.744 3.84-16.224 3.84-25.184 0-35.36-26.976-64-61.664-64-38.56 0-65.536 28.64-65.536 64 0 33.76 24.576 61.376 60.352 63.84l5.6 0.128 7.296-0.416 61.696 83.648c11.552 14.144 30.848 16.992 42.4 6.4z"  horiz-adv-x="1024" />

    
    <glyph glyph-name="hege" unicode="&#59018;" d="M631.466667-22.186667h-13.653334l-88.746666 20.48c-10.24 3.413333-17.066667 3.413333-23.893334 0l-102.4-23.893333c-13.653333-3.413333-30.72 0-44.373333 10.24s-20.48 23.893333-20.48 40.96V213.333333c0 17.066667 10.24 34.133333 23.893333 44.373334 13.653333 10.24 34.133333 10.24 47.786667 3.413333 40.96-17.066667 85.333333-23.893333 129.706667-20.48 109.226667 13.653333 194.56 102.4 204.8 211.626667 6.826667 71.68-17.066667 143.36-68.266667 194.56s-122.88 75.093333-197.973333 68.266666C378.88 708.266667 293.546667 622.933333 276.48 520.533333c-6.826667-54.613333 0-109.226667 30.72-157.013333 10.24-17.066667 3.413333-37.546667-13.653333-47.786667-17.066667-10.24-37.546667-3.413333-47.786667 13.653334-34.133333 61.44-47.786667 129.706667-37.546667 201.386666 20.48 133.12 133.12 242.346667 269.653334 256 92.16 10.24 184.32-20.48 252.586666-88.746666 64.853333-64.853333 98.986667-157.013333 88.746667-252.586667-13.653333-139.946667-126.293333-252.586667-266.24-269.653333-47.786667-6.826667-98.986667 0-143.36 13.653333v-139.946667l78.506667 17.066667c17.066667 6.826667 40.96 6.826667 61.44 0l64.853333-17.066667v54.613334c0 20.48 13.653333 34.133333 34.133333 34.133333s34.133333-13.653333 34.133334-34.133333v-78.506667c0-17.066667-6.826667-30.72-20.48-40.96-6.826667-3.413333-20.48-6.826667-30.72-6.826667z m-129.706667 413.013334l136.533333 136.533333c13.653333 13.653333 13.653333 34.133333 0 47.786667s-34.133333 13.653333-47.786666 0L477.866667 462.506667l-44.373334 44.373333c-13.653333 13.653333-34.133333 13.653333-47.786666 0s-13.653333-34.133333 0-47.786667l68.266666-68.266666c6.826667-6.826667 17.066667-10.24 23.893334-10.24s17.066667 3.413333 23.893333 10.24z"  horiz-adv-x="1024" />

    
    <glyph glyph-name="gongju-tool" unicode="&#59019;" d="M889.8 164.4L665.3 386c13.7 33.3 21.2 69.7 21.2 107.8 0 158.7-130.4 287.4-291.3 287.4-50.6 0-98-12.7-139.5-35L422 582.1c5.3-5.2 8.4-12.4 8.4-19.9s-3-14.6-8.4-19.9l-76-75c-11.2-11-29.1-11-40.3 0l-166.1 164c-23.4-42.1-35.6-89.5-35.5-137.7 0-158.7 130.4-287.4 291.3-287.4 44.6 0 86.8 9.9 124.7 27.6l220.2-217.3c40.3-39.8 106.1-39.8 146.4 0l3.2 3.2c19.3 19.1 30.2 45.1 30.1 72.3 0 27.3-10.9 53.3-30.2 72.4z"  horiz-adv-x="1024" />

    
    <glyph glyph-name="shaixuan" unicode="&#58946;" d="M855.342766 744.53738c-6.056949 11.851932-18.984377 19.393699-33.219589 19.393699L101.903901 763.931079c-14.360056 0-27.412326-7.704472-33.396621-19.744693-5.988388-12.015661-3.845585-26.157753 5.520737-36.192294l255.896134-274.308483 0-309.339324c0-12.847609 7.895831-24.602328 20.389376-30.328749l189.116195-86.432535c5.154393-2.371 10.771321-3.515057 16.33913-3.515057 6.541997 0 13.090133 1.607614 18.926048 4.797259 10.718109 5.945409 17.427928 16.503882 17.809621 28.037567l12.957103 396.767536 245.078765 274.90507C859.543438 718.683549 861.425298 732.686471 855.342766 744.53738zM520.773827 91.724307l-117.384477 53.647851L403.38935 412.371164l127.858016 0L520.773827 91.724307zM550.774095 479.013981c-1.963725 0.299829-3.761674 1.090844-5.809309 1.090844L383.519814 480.104825 181.938726 696.196395l562.427506 0L550.774095 479.013981zM685.454494 371.991502l273.392624 0 0-59.759035-273.392624 0 0 59.759035ZM685.454494 241.895515l273.392624 0 0-59.759035-273.392624 0 0 59.759035ZM685.454494 122.381537l273.392624 0 0-59.759035-273.392624 0 0 59.759035Z"  horiz-adv-x="1024" />

    
    <glyph glyph-name="shezhi01" unicode="&#59020;" d="M594.466 441.412c0 37.137 23.484 68.813 56.252 81.374-7.646 30.584-19.66 59.529-35.499 86.29-32.222-14.2-70.997-8.193-97.212 18.022-26.214 26.214-32.221 64.99-18.022 97.211a363.318 363.318 0 0 1-86.289 35.499c-12.561-32.768-44.237-56.252-81.374-56.252-37.137 0-68.813 23.484-81.374 56.252-30.583-7.646-59.528-19.66-86.289-35.499 14.2-32.222 8.192-70.997-18.022-97.211s-64.99-32.222-97.212-18.023c-15.838-26.76-27.853-55.705-35.499-86.289 32.768-12.56 56.252-44.237 56.252-81.374 0-37.137-23.484-68.813-56.252-81.374 7.646-30.583 19.661-59.528 35.5-86.289 32.22 14.2 70.996 8.192 97.21-18.022 26.215-26.214 32.223-64.99 18.023-97.212 26.76-15.838 55.706-27.853 86.29-35.498 12.56 32.768 44.236 56.251 81.373 56.251 37.137 0 68.813-23.483 81.374-56.251 30.583 7.645 59.529 19.66 86.29 35.498-14.2 32.222-8.193 70.998 18.021 97.212 26.215 26.214 64.99 32.222 97.212 18.022 15.838 26.76 27.853 55.706 35.499 86.29-32.768 12.56-56.252 43.69-56.252 81.373z m-262.144-87.381c-48.06 0-87.381 39.322-87.381 87.381s39.321 87.382 87.381 87.382 87.381-39.322 87.381-87.382-39.321-87.381-87.38-87.381z m359.356 369.732h318.396v-80.281H691.678z m0-323.31h318.396v-80.282H691.678zM175.582 77.13999999999999h834.492v-80.281H175.582z"  horiz-adv-x="1024" />

    
    <glyph glyph-name="jia1" unicode="&#58947;" d="M906.212134 330.267014 565.732986 330.267014 565.732986-10.212134C565.732986-30.013685 541.666486-63.972 511.97312-63.972 482.297674-63.972 458.213254-30.013685 458.213254-10.212134L458.213254 330.267014 117.734106 330.267014C97.950475 330.267014 63.97424 354.333514 63.97424 384.02688 63.97424 413.720246 97.950475 437.786746 117.734106 437.786746L458.213254 437.786746 458.213254 778.265894C458.213254 798.049525 482.297674 832.02576 511.97312 832.02576 541.666486 832.02576 565.732986 798.049525 565.732986 778.265894L565.732986 437.786746 906.212134 437.786746C925.995765 437.786746 959.972 413.720246 959.972 384.02688 959.972 354.333514 925.995765 330.267014 906.212134 330.267014Z"  horiz-adv-x="1024" />

    
    <glyph glyph-name="digital" unicode="&#58901;" d="M64-64V832h64v-832h832v-64H64zM192 512h128v-448H192zM384 704h128v-640H384zM576 448h128v-384H576zM768 576h128v-512h-128z"  horiz-adv-x="1024" />

    
    <glyph glyph-name="shuju1" unicode="&#59025;" d="M113.664 293.888h81.92V-25.6h-81.92zM345.088 396.288h81.92V-25.6h-81.92zM576.512 333.824h81.92v-358.4h-81.92zM807.936 516.096h81.92v-540.672h-81.92zM175.104 358.4l-39.936 47.104 242.688 200.704 37.888 1.024 195.584-149.504L834.56 762.88l49.152-35.84-241.664-331.776-43.008-6.144-201.728 154.624zM848.896 731.136m-61.44 0a61.44 61.44 0 1 1 122.88 0 61.44 61.44 0 1 1-122.88 0Z"  horiz-adv-x="1024" />

    
    <glyph glyph-name="lujing42" unicode="&#59021;" d="M1105.493264-23.270823H104.729177V884.382043A11.673812 11.673812 0 0 1 93.11122 896H11.673812a11.673812 11.673812 0 0 1-11.617956-11.617957v-1000.764086a11.673812 11.673812 0 0 1 11.617956-11.617957h1093.819452a11.673812 11.673812 0 0 1 11.617956 11.617957v81.437408a11.673812 11.673812 0 0 1-11.617956 11.673812zM209.458354 69.840397h779.63192a11.673812 11.673812 0 0 1 11.617957 11.617957V715.642393a11.673812 11.673812 0 0 1-19.940435 8.266624l-305.920908-305.920908-182.424262 180.357606a11.673812 11.673812 0 0 1-16.421535 0L201.08002 322.530955a11.171112 11.171112 0 0 1-3.351334-8.154912v-233.0294a11.673812 11.673812 0 0 1 11.729668-11.562101z"  horiz-adv-x="1117" />

    
    <glyph glyph-name="lujing44" unicode="&#59022;" d="M246.709601 684.066633H30.22742A33.805957 33.805957 0 0 1 0.14322 647.314286V-91.299344a33.805957 33.805957 0 0 1 30.0842-36.648965H246.709601a33.805957 33.805957 0 0 1 30.0842 36.648965V647.314286A33.805957 33.805957 0 0 1 246.709601 684.066633zM201.738374-47.051792a15.50732 15.50732 0 0 0-13.853205-16.747905H88.896779a15.50732 15.50732 0 0 0-13.853205 16.747905v287.040485a15.50732 15.50732 0 0 0 13.853205 16.747905h99.246845a15.50732 15.50732 0 0 0 13.853206-16.747905v-287.040485zM625.294962 761.603231H408.812781a33.805957 33.805957 0 0 1-30.0842-36.648965V-91.299344a33.805957 33.805957 0 0 1 30.0842-36.648965h216.43049a33.805957 33.805957 0 0 1 30.0842 36.648965V725.057648a33.805957 33.805957 0 0 1-30.0842 36.648965z m-44.816154-804.1579c0-11.837254-6.151237-21.400101-13.853205-21.400101h-99.246845c-7.650278 0-13.853205 9.614538-13.853205 21.400101v366.231196c0 11.837254 6.151237 21.400101 13.853205 21.400101h99.246845c7.650278 0 13.853205-9.614538 13.853205-21.400101zM1003.880323 896H787.398142a33.805957 33.805957 0 0 1-30.0842-36.648965V-91.299344a33.805957 33.805957 0 0 1 30.0842-36.648965h216.482181A33.805957 33.805957 0 0 1 1033.964523-91.299344V859.351035A33.805957 33.805957 0 0 1 1003.880323 896z m-44.816154-931.628067c0-15.50732-6.151237-28.275013-13.853205-28.275012h-99.246845c-7.650278 0-13.853205 12.61262-13.853206 28.275012V447.011408c0 15.50732 6.151237 28.275013 13.853206 28.275013h99.246845c7.650278 0 13.853205-12.61262 13.853205-28.275013v-482.691166z"  horiz-adv-x="1034" />

    
    <glyph glyph-name="lianhe4" unicode="&#59023;" d="M0-127.880047V889.72466A6.330874 6.330874 0 0 0 6.27534 896h39.59573A6.330874 6.330874 0 0 0 52.201944 889.72466V-75.844704h1052.146844a6.441942 6.441942 0 0 0 4.442719-1.832622 6.330874 6.330874 0 0 0 1.832621-4.498252v-39.540196a6.330874 6.330874 0 0 0-6.27534-6.275341zM111.067966 118.524236a111.067966 111.067966 0 1 0 111.067966-111.067966 111.067966 111.067966 0 0 0-111.067966 111.067966z m388.737882 55.533984a111.067966 111.067966 0 1 0 111.067966-111.067967 111.067966 111.067966 0 0 0-111.067966 111.067967z m444.271865 316.543703a72.194178 72.194178 0 1 0 72.194178-72.194178A72.194178 72.194178 0 0 0 944.077713 490.601923z m-333.203899 55.533983a72.194178 72.194178 0 1 0 72.194178-72.194178A72.194178 72.194178 0 0 0 610.873814 546.135906z m-277.669915 0a72.194178 72.194178 0 1 0 72.194178-72.194178A72.194178 72.194178 0 0 0 333.203899 546.135906z m610.873814 222.135933a72.194178 72.194178 0 1 0 72.194178-72.194178A72.194178 72.194178 0 0 0 944.077713 768.271839z"  horiz-adv-x="1110" />

    
    <glyph glyph-name="guanbi1" unicode="&#59081;" d="M551.424 384l195.072 195.072c9.728 9.728 9.728 25.6 0 36.864l-1.536 1.536c-9.728 9.728-25.6 9.728-35.328 0L514.56 420.864 319.488 615.936c-9.728 9.728-25.6 9.728-35.328 0l-1.536-1.536c-9.728-9.728-9.728-25.6 0-36.864L477.696 384 282.624 188.928c-9.728-9.728-9.728-25.6 0-36.864l1.536-1.536c9.728-9.728 25.6-9.728 35.328 0L514.56 347.136l195.072-195.072c9.728-9.728 25.6-9.728 35.328 0l1.536 1.536c9.728 9.728 9.728 25.6 0 36.864L551.424 384z"  horiz-adv-x="1024" />

    
    <glyph glyph-name="save" unicode="&#59216;" d="M160 736v-704h704V588.992l-8.992 10.016-128 128L716.992 736z m64-64h96v-192h384V658.016l96-96V96h-64v288H288v-288H224z m160 0h128v-64h64V672h64v-128h-256z m-32-352h320v-224H352z"  horiz-adv-x="1024" />

    
    <glyph glyph-name="favourable_full" unicode="&#58915;" d="M944.034 262.5c23.016 39.982-15.074 75.582-29.763 98.217 3.074 27.689 34.031 43.974 20.833 91.274-24.3 87.099-227.402 50.854-318.466 48.612v0.993c42.678 61.060 92.612 149.592 65.479 251.994-10.17 38.381-19.006 77.050-68.455 76.392-3.306-1.322-6.615-2.645-9.92-3.968-7.581-63.981-50.299-116.008-81.354-158.736-7.605-15.211-15.212-30.425-22.817-45.637-18.037-32.173-53.831-59.3-83.338-80.36-27.454-19.596-122.467-69.313-134.926-93.257-9.201-17.682-1.78-43.291 1.983-62.504 4.629-48.938 9.261-97.893 13.89-146.831 0.661-45.962 1.323-91.939 1.983-137.903-0.010-22.035-4.063-49.449 4.961-62.501 12.996-18.801 100.23-27.049 127.982-35.716 39.57-12.356 61.096-40.713 99.21-52.582 54.331-16.916 185.020-13.694 246.042-3.968 36.48 5.815 69.796 3.42 95.242 18.849 17.575 10.658 39.792 40.075 29.764 73.417-3.695 12.283-19.491 20.306-14.882 39.683 5.461 22.969 38.352 27.678 47.621 49.607 22.385 52.955-31.127 70.904-25.794 96.234 3.878 18.414 26.289 24.037 34.725 38.693zM250.553 374.607c-5.601 30.841-5.201 71.355-24.802 88.297-17.503 15.128-96.235 25.429-126.99 26.786-6.894-8.539-16.518-14.504-20.833-25.794-10.254-26.819-2.957-74.498 1.983-104.17 13.566-81.459 18.692-165.495 33.732-244.059 5.043-26.337 5.653-88.493 21.826-101.195 21.132-16.597 93.249-14.668 122.029-5.953 15.221 22.539 9.342 81.698 8.929 117.067-0.996 85.255-2.189 173.653-15.875 249.020z"  horiz-adv-x="1024" />

    
    <glyph glyph-name="cailiaohegeshuaishezhiguanli" unicode="&#58895;" d="M855.13728 708.5824c-105.97376 0-209.34656 36.9152-291.08736 103.936l-40.9344 33.56672-40.94976-33.56672c-81.77152-67.01568-185.15456-103.936-291.09248-103.936H126.49984V273.16736l4.95104-11.90912c67.33824-161.82784 206.54592-289.3824 372.38272-341.2224l19.08224-5.96992 19.11808 5.86752c170.07616 52.16768 305.99168 176.79872 372.92032 341.89824l4.62848 11.43808 0.08704 12.34944 0.03072 3.27168V708.5824h-64.5632z m0-419.22048l-0.03072-3.26144c-58.8544-145.21856-180.87424-258.06848-332.00128-304.44032-148.33664 46.39232-272.86528 162.24256-332.032 304.4096V643.9936c125.99296 0 241.62304 44.46208 332.032 118.56896C613.50912 688.4352 729.088 643.9936 855.13728 643.9936v-354.63168zM400.47616 591.04768c57.68192-2.5856 87.78752-39.74656 90.368-111.5136-2.58048-70.50752-33.97632-107.0336-94.21312-109.5936-55.12192 3.85024-84.59264 40.37632-88.43776 109.5936 2.55488 71.76704 33.31584 108.928 92.28288 111.5136z m-1.92-174.96064c26.91584 1.25952 41.0112 23.07072 42.30144 65.37216-1.29024 42.29632-14.7456 64.08192-40.37632 65.37216-28.20608 0-42.29632-22.44096-42.29632-67.29216 1.25952-39.75168 14.72-60.89728 40.3712-63.45216z m207.64672 174.96064h51.91168l-219.18208-417.21856H387.0208l219.18208 417.21856z m40.37632-199.95648c57.68192-2.5856 87.78752-40.37632 90.36288-113.4336-2.58048-66.6624-33.97632-101.23776-94.208-103.82336-56.41728 3.84512-85.88288 38.45632-88.44288 103.82336 2.56 71.77216 33.32096 109.58848 92.288 113.4336z m-1.92512-176.88576c25.63072 1.25952 39.0912 23.71072 40.38144 67.29728-1.29024 41.0112-14.12096 62.16192-38.45632 63.45216-26.91584 0-41.0368-21.81632-42.30144-65.37728 1.26976-41.0368 14.72512-62.81216 40.37632-65.37216z"  horiz-adv-x="1024" />

    
    <glyph glyph-name="yonghushentoushuai" unicode="&#58899;" d="M486.4 113.066667c-10.666667 0-19.2 4.266667-25.6 12.8-10.666667 14.933333-6.4 34.133333 6.4 44.8l187.733333 136.533333c14.933333 10.666667 34.133333 6.4 44.8-6.4l64-87.466667 132.266667 108.8c12.8 10.666667 34.133333 8.533333 44.8-4.266666 10.666667-12.8 8.533333-34.133333-4.266667-44.8l-157.866666-130.133334c-6.4-6.4-14.933333-8.533333-23.466667-6.4-8.533333 2.133333-17.066667 6.4-21.333333 12.8l-64 87.466667-160-117.333333c-10.666667-4.266667-17.066667-6.4-23.466667-6.4zM772.266667 81.066667c-14.933333-4.266667-29.866667 2.133333-29.866667 2.133333v-29.866667h-533.333333v34.133334c0 151.466667 119.466667 275.2 266.666666 275.2 42.666667 0 81.066667-10.666667 117.333334-27.733334 0 0 12.8-6.4 29.866666 6.4 25.6 19.2 57.6 10.666667 57.6 10.666667-27.733333 29.866667-61.866667 46.933333-81.066666 55.466667 46.933333 38.4 76.8 96 76.8 162.133333 0 113.066667-89.6 206.933333-200.533334 206.933333s-200.533333-93.866667-200.533333-206.933333c0-66.133333 29.866667-123.733333 76.8-162.133333-123.733333-51.2-211.2-174.933333-211.2-320v-68.266667c0-19.2 14.933333-34.133333 34.133333-34.133333h599.466667c19.2 0 34.133333 14.933333 34.133333 34.133333v68.266667 10.666666s-19.2-12.8-36.266666-17.066666zM341.333333 571.733333c0 76.8 59.733333 138.666667 134.4 138.666667 72.533333 0 134.4-61.866667 134.4-138.666667s-59.733333-138.666667-134.4-138.666666-134.4 61.866667-134.4 138.666666z"  horiz-adv-x="1024" />

    
    <glyph glyph-name="shiwumoxingshengchanzhizuo" unicode="&#58884;" d="M950.5 8.2H82c-4.9 0-8.9-4-8.9-8.9v-8.9c0-4.9 4-8.9 8.9-8.9h868.5c4.9 0 8.9 4 8.9 8.9v8.9c-0.1 4.9-4.1 8.9-8.9 8.9zM821.3 367c-11 0-21.9 2.3-32.2 6.9-19.5 8.6-34.4 24.3-42.1 44.2-7.7 19.9-7.2 41.5 1.4 61s24.3 34.4 44.2 42.1c19.9 7.7 41.5 7.2 61-1.4s34.4-24.3 42.1-44.2c7.7-19.9 7.2-41.5-1.4-61s-24.3-34.4-44.2-42.1c-9.4-3.7-19.1-5.5-28.8-5.5z m0 141.9c-7.6 0-15.1-1.4-22.4-4.2-15.5-6-27.7-17.6-34.4-32.8-6.7-15.2-7.1-32-1.1-47.5s17.6-27.7 32.8-34.4c15.2-6.7 32-7.1 47.5-1.1s27.7 17.6 34.4 32.8c6.7 15.2 7.1 32 1.1 47.5s-17.6 27.7-32.8 34.4c-8 3.5-16.5 5.3-25.1 5.3zM821.4 402.5c-17.8 0-34.6 10.8-41.4 28.3-8.8 22.8 2.6 48.5 25.3 57.3 11 4.3 23.1 4 33.9-0.8 10.8-4.8 19.1-13.5 23.4-24.5 8.8-22.8-2.6-48.5-25.3-57.3-5.2-2-10.6-3-15.9-3z m-0.1 70.9c-3.2 0-6.5-0.6-9.6-1.8-13.7-5.3-20.5-20.7-15.2-34.4 5.3-13.7 20.7-20.5 34.4-15.2 13.7 5.3 20.5 20.7 15.2 34.4-2.6 6.6-7.5 11.9-14 14.7-3.5 1.5-7.1 2.3-10.8 2.3zM627.1 696.8c-7.3 0-14.6 1.5-21.5 4.6-13 5.7-23 16.2-28.1 29.5-10.6 27.3 3.1 58.2 30.4 68.8 13.2 5.1 27.7 4.8 40.7-1 13-5.7 23-16.2 28.1-29.5 10.6-27.3-3.1-58.2-30.4-68.8-6.3-2.4-12.8-3.6-19.2-3.6z m0 88.7c-4.3 0-8.6-0.8-12.8-2.4-8.8-3.4-15.8-10.1-19.6-18.7-3.8-8.7-4.1-18.3-0.6-27.1 3.4-8.8 10.1-15.8 18.7-19.6 8.7-3.8 18.3-4.1 27.1-0.6 8.8 3.4 15.8 10.1 19.6 18.7 3.8 8.7 4.1 18.3 0.6 27.1-3.4 8.8-10.1 15.8-18.7 19.6-4.6 2-9.4 3-14.3 3zM605.81 704.353l15.858 7.864 138.266-278.804-15.858-7.864zM884.2 471.8c-2.7 0-5.3 1.2-7 3.5L664.6 752.4c-3 3.9-2.2 9.4 1.6 12.4 3.9 3 9.4 2.2 12.4-1.6L891.3 486c3-3.9 2.2-9.4-1.6-12.4-1.7-1.2-3.6-1.8-5.5-1.8zM499.7 592.6c-4.9 0-9.7 1-14.3 3-8.7 3.8-15.3 10.8-18.7 19.6-7 18.2 2 38.8 20.3 45.8 8.8 3.4 18.5 3.2 27.1-0.6 8.7-3.8 15.3-10.8 18.7-19.6 3.4-8.8 3.2-18.5-0.6-27.1-3.8-8.7-10.8-15.3-19.6-18.7-4.3-1.6-8.6-2.4-12.9-2.4z m-16.6 29c1.7-4.4 5-7.9 9.4-9.8 4.3-1.9 9.1-2 13.6-0.3 4.4 1.7 7.9 5 9.8 9.4 1.9 4.3 2 9.1 0.3 13.6-1.7 4.4-5 7.9-9.4 9.8-4.3 1.9-9.1 2-13.6 0.3-9-3.6-13.6-13.8-10.1-23zM490.1 644c-2.1 0-4.1 0.7-5.8 2.2-3.7 3.2-4.1 8.8-0.9 12.5l94.3 109.2c3.2 3.7 8.8 4.1 12.5 0.9 3.7-3.2 4.1-8.8 0.9-12.5L496.8 647c-1.8-2-4.2-3-6.7-3zM518.584 634.654l78.512 83.889 12.922-12.095-78.51-83.888zM921.5 232.5c-4.4 0-8.2 3.2-8.8 7.6l-30.9 222.7c-0.7 4.8 2.7 9.3 7.6 10 4.9 0.7 9.3-2.7 10-7.6l30.9-222.7c0.7-4.8-2.7-9.3-7.6-10h-1.2zM755.5 238.6h-0.2c-4.9 0.1-8.8 4.1-8.7 9l2.9 165.5c0.1 4.9 4.1 8.7 9 8.7 4.9-0.1 8.8-4.1 8.7-9l-2.9-165.5c0-4.8-4-8.7-8.8-8.7zM489.6 244.5H179.4c-4.9 0-8.9 4-8.9 8.9V487.8c0 4.9 4 8.9 8.9 8.9h310.2c4.9 0 8.9-4 8.9-8.9v-234.4c0-4.9-4-8.9-8.9-8.9z m-301.3 17.8h292.5V478.9H188.3v-216.6zM489.6 478.9H179.4c-3.5 0-6.7 2.1-8.1 5.3-1.4 3.2-0.7 7 1.7 9.6l51.7 55.1c1.7 1.8 4 2.8 6.5 2.8H438c2.4 0 4.8-1 6.5-2.8l51.7-55.1c2.4-2.6 3.1-6.3 1.7-9.6-1.5-3.2-4.7-5.3-8.3-5.3z m-289.7 17.7h269.3L434.1 534H235l-35.1-37.4zM888.4 114.5H135.1c-39.1 0-70.9 31.8-70.9 70.9 0 39.1 31.8 70.9 70.9 70.9h753.3c39.1 0 70.9-31.8 70.9-70.9 0-39-31.8-70.9-70.9-70.9zM135.1 238.6c-29.3 0-53.2-23.9-53.2-53.2s23.9-53.2 53.2-53.2h753.3c29.3 0 53.2 23.9 53.2 53.2s-23.9 53.2-53.2 53.2H135.1zM135.1 141.1c-24.4 0-44.3 19.9-44.3 44.3s19.9 44.3 44.3 44.3 44.3-19.9 44.3-44.3-19.8-44.3-44.3-44.3z m0 79.8c-19.5 0-35.4-15.9-35.4-35.4s15.9-35.4 35.4-35.4 35.4 15.9 35.4 35.4-15.8 35.4-35.4 35.4zM135.1 185.4m-13.3 0a13.3 13.3 0 1 1 26.6 0 13.3 13.3 0 1 1-26.6 0ZM888.4 141.1c-24.4 0-44.3 19.9-44.3 44.3s19.9 44.3 44.3 44.3 44.3-19.9 44.3-44.3-19.8-44.3-44.3-44.3z m0 79.8c-19.5 0-35.4-15.9-35.4-35.4s15.9-35.4 35.4-35.4 35.4 15.9 35.4 35.4-15.8 35.4-35.4 35.4zM888.4 185.4m-13.3 0a13.3 13.3 0 1 1 26.6 0 13.3 13.3 0 1 1-26.6 0ZM126.3 185.4H144v-177.2h-17.7zM879.6 185.4h17.7v-177.2h-17.7zM884 220.9H130.7c-2.4 0-4.4 2-4.4 4.4 0 2.4 2 4.4 4.4 4.4H884c2.4 0 4.4-2 4.4-4.4 0-2.4-2-4.4-4.4-4.4zM884 141.1H130.7c-2.4 0-4.4 2-4.4 4.4 0 2.4 2 4.4 4.4 4.4H884c2.4 0 4.4-2 4.4-4.4 0-2.4-2-4.4-4.4-4.4zM445.3 571c-1.1 0-2.3 0.4-3.1 1.3-1.7 1.7-1.7 4.5 0 6.3l35.4 35.4c1.7 1.7 4.5 1.7 6.3 0 1.7-1.7 1.7-4.5 0-6.3l-35.4-35.4c-0.9-0.9-2.1-1.3-3.2-1.3zM348.1 387.5l-39.9-69.1h25.1l27.3 47.4zM352.7 421.3h-25.1L300.2 374l12.6-21.7z"  horiz-adv-x="1024" />

    
    <glyph glyph-name="xiaoshuaitisheng" unicode="&#58910;" d="M597.3 186.9H173c-35.2 0-63.9 28.7-63.9 63.9V624.9c0 35.2 28.7 63.9 63.9 63.9h606c35.2 0 63.9-28.7 63.9-63.9v-156.1c0-13.8-11.2-25-25-25s-25 11.2-25 25V624.9c0 7.7-6.2 13.9-13.9 13.9H173c-7.7 0-13.9-6.2-13.9-13.9v-374.1c0-7.7 6.2-13.9 13.9-13.9h424.3c13.8 0 25-11.2 25-25s-11.2-25-25-25zM476 93.5c-13.8 0-25 11.2-25 25v91.4c0 13.8 11.2 25 25 25s25-11.2 25-25v-91.4c0-13.8-11.2-25-25-25zM588.4 78.9H363.6c-13.8 0-25 11.2-25 25s11.2 25 25 25h224.8c13.8 0 25-11.2 25-25s-11.2-25-25-25zM568.3 254.9H134.1c-11 0-20 9-20 20s9 20 20 20h434.2c11 0 20-9 20-20s-9-20-20-20zM747.6 76.7c-2.2 0-4.3 0.3-6.5 0.9L669 96.9c-8.6 2.3-15.4 9-17.7 17.7-8.8 32.6-34.5 58.4-67.1 67.1-8.6 2.3-15.4 9.1-17.7 17.7l-19.3 72.1c-2.3 8.6 0.2 17.8 6.5 24.1 23.9 23.9 33.3 59 24.5 91.6-2.3 8.6 0.2 17.8 6.5 24.2l52.8 52.8c6.3 6.3 15.5 8.8 24.2 6.5 32.6-8.8 67.8 0.6 91.6 24.5 6.3 6.3 15.5 8.8 24.1 6.5l72.1-19.3c8.6-2.3 15.4-9 17.7-17.7 8.8-32.7 34.5-58.4 67.1-67.1 8.6-2.3 15.4-9.1 17.7-17.7l19.3-72.1c2.3-8.6-0.2-17.8-6.5-24.1-23.9-23.9-33.3-59-24.5-91.6 2.3-8.6-0.2-17.8-6.5-24.2L881.1 115c-6.3-6.3-15.5-8.8-24.2-6.5-32.6 8.8-67.8-0.6-91.6-24.5-4.8-4.7-11.2-7.3-17.7-7.3zM695 141.6l45.9-12.3c31.9 25.9 73.7 37.1 114.3 30.6l33.6 33.6c-6.5 40.6 4.7 82.4 30.6 114.3l-12.3 45.9c-38.4 14.7-69 45.3-83.7 83.7l-45.9 12.3c-31.9-25.9-73.7-37.1-114.3-30.6l-33.6-33.6c6.5-40.6-4.7-82.4-30.6-114.3l12.3-45.9c38.5-14.7 69-45.2 83.7-83.7zM761.6 197.4c-50.2 0-91.1 40.9-91.1 91.1 0 50.2 40.9 91.1 91.1 91.1 50.2 0 91.1-40.9 91.1-91.1 0-50.2-40.9-91.1-91.1-91.1z m0 132.2c-22.7 0-41.1-18.4-41.1-41.1 0-22.7 18.4-41.1 41.1-41.1 22.7 0 41.1 18.4 41.1 41.1 0 22.7-18.4 41.1-41.1 41.1zM253.8 321.9c-6.4 0-12.8 2.4-17.7 7.3-9.8 9.8-9.8 25.6 0 35.4l146.5 146.5c17.2 17.2 45.1 17.2 62.3 0l56.2-56.2L650.3 604c9.8 9.8 25.6 9.7 35.4 0 9.8-9.8 9.7-25.6 0-35.4L532.2 415.3c-17.2-17.2-45.1-17.2-62.2 0l-56.2 56.2-142.3-142.3c-4.9-4.9-11.3-7.3-17.7-7.3z"  horiz-adv-x="1024" />

    
    <glyph glyph-name="weiwaishengchan" unicode="&#58905;" d="M329.1 489.4h43.6c5.8-13.7 13.4-26.3 22.2-38l-6.6-11.4H434l9.5 16.5c-20.7 18.9-35.7 44-41.9 72.5h-52.7c-10.9 0-19.8 8.9-19.8 19.8v19.8c0 10.9 8.9 19.8 19.8 19.8h52.7c6.2 28.4 21.2 53.5 41.9 72.5l-26.4 45.7c-5.5 9.5-2.2 21.6 7.2 27l17.1 9.9c9.5 5.5 21.6 2.2 27-7.2l26.4-45.7c13.2 4.2 27.3 6.6 41.9 6.6 14.6 0 28.6-2.4 41.9-6.6l26.4 45.7c5.5 9.5 17.6 12.7 27 7.2l17.1-9.9c9.5-5.5 12.7-17.6 7.2-27l-26.4-45.7c20.7-18.9 35.7-44 41.9-72.5h52.7c10.9 0 19.8-8.9 19.8-19.8v-19.8c0-10.9-8.9-19.8-19.8-19.8h-52.7c-6.2-28.4-21.2-53.5-41.9-72.5l26.4-45.7c5.5-9.5 2.2-21.6-7.2-27l-17.1-9.9c-0.6-0.3-1.2-0.5-1.8-0.8 3.4-10 5.4-20.8 5.4-32 0-3.8-0.3-7.5-0.7-11.2l51.1 29.5c18.9 10.9 25.4 35.1 14.5 54l-21.9 38c8.8 11.7 16.4 24.3 22.2 38h43.6c21.8 0 39.6 17.7 39.6 39.5v59.3c0 21.8-17.7 39.5-39.6 39.5h-43.6c-5.8 13.7-13.4 26.3-22.2 38l21.9 38c10.9 18.9 4.4 43.1-14.5 54l-51.4 29.7c-18.9 10.9-43.1 4.4-54-14.5L558.7 735c-7.2 0.9-14.5 1.5-22 1.5s-14.8-0.6-22-1.5l-21.9 38c-10.9 18.9-35.1 25.4-54 14.5l-51.4-29.7c-18.9-10.9-25.4-35.1-14.5-54l21.9-38c-8.8-11.7-16.4-24.3-22.2-38H329c-21.8 0-39.5-17.7-39.5-39.5V529c0-21.9 17.7-39.6 39.6-39.6z m207.6 148.3c-43.7 0-79.1-35.4-79.1-79.1 0-43.7 35.4-79.1 79.1-79.1s79.1 35.4 79.1 79.1c0 43.7-35.4 79.1-79.1 79.1z m0-118.7c-21.8 0-39.6 17.7-39.6 39.5s17.7 39.5 39.6 39.5 39.6-17.7 39.6-39.5-17.7-39.5-39.6-39.5z m296.6-148.3C793.9 336.3 685 232.3 685 232.3l-197.8 9.9-59.2 39.5h98.9c29.5 0 69.2 20.5 69.2 69.2s-40.3 69.2-69.2 69.2H258c-43.5 0-56.3-17.8-87.1-39.5-46.8-33-98.9-69.2-98.9-69.2l19.8-29.7 148.3 98.9h286.7c16.2 0 29.7-16.3 29.7-29.7 0-13.4-6.7-29.7-29.7-29.7H398.3c-21.5 0-35.7-33.8-19.8-49.4 15.9-15.7 84.5-69.2 98.9-69.2 14.4 0 192.8-9.9 207.6-9.9S836.2 326.6 853.1 341c22.7 19.4 59.3 0 59.3 0L694.9 123.5H279.6C257 123.5 72 14.8 72 14.8l19.8-39.5L289.5 84H685c30 0 49.4 29.7 49.4 29.7S951.1 319.2 952 350.9c0.9 31.8-83.3 50.6-118.7 19.8z"  horiz-adv-x="1024" />

    
    <glyph glyph-name="shengchanguochengguanli" unicode="&#58921;" d="M160.3-48.6c-52.9 0-95.9 43-95.9 95.9s43 95.9 95.9 95.9 95.9-43 95.9-95.9-43-95.9-95.9-95.9z m0 127.8c-17.6 0-31.9-14.3-31.9-31.9s14.3-31.9 31.9-31.9 31.9 14.3 31.9 31.9-14.3 31.9-31.9 31.9zM319 399.2c-52.9 0-95.9 43-95.9 95.9s43 95.9 95.9 95.9 95.9-43 95.9-95.9-43-95.9-95.9-95.9z m0 127.8c-17.6 0-31.9-14.3-31.9-31.9s14.3-31.9 31.9-31.9 31.9 14.3 31.9 31.9S336.6 527 319 527zM187.5 92.1c-3.5 0-7.2 0.6-10.7 1.8-16.7 5.9-25.4 24.2-19.5 40.9l110.1 310.7c5.9 16.7 24.2 25.4 40.9 19.5 16.7-5.9 25.4-24.2 19.5-40.9L217.7 113.5c-4.7-13.2-17-21.4-30.2-21.4zM863.4 622.9c-24.6 0-49.1 9.3-67.8 28-37.4 37.4-37.4 98.3 0 135.6 37.4 37.4 98.3 37.4 135.6 0 37.4-37.4 37.4-98.3 0-135.6-18.7-18.6-43.3-28-67.8-28z m0 127.8c-8.2 0-16.3-3.1-22.6-9.3-12.4-12.4-12.4-32.7 0-45.1 12.4-12.4 32.7-12.4 45.1 0 12.4 12.4 12.4 32.7 0 45.1-6.2 6.2-14.3 9.3-22.5 9.3zM659 194c-24.6 0-49.1 9.3-67.8 28-18.1 18.1-28.1 42.2-28.1 67.8 0 25.6 10 49.7 28.1 67.8 37.4 37.4 98.3 37.4 135.6 0 18.1-18.1 28.1-42.2 28.1-67.8 0-25.6-10-49.7-28.1-67.8-18.7-18.7-43.2-28-67.8-28z m0 127.8c-8.2 0-16.3-3.1-22.6-9.3-6-6-9.3-14-9.3-22.6 0-8.5 3.3-16.5 9.3-22.6 12.4-12.4 32.7-12.4 45.1 0 6 6 9.3 14 9.3 22.6 0 8.5-3.3 16.5-9.3 22.6-6.2 6.2-14.3 9.3-22.5 9.3zM686.5 315.6c-4.6 0-9.3 1-13.7 3.1-16 7.6-22.7 26.7-15.1 42.7L799.5 659c7.6 16 26.7 22.7 42.7 15.1 16-7.6 22.7-26.7 15.1-42.7L715.4 333.8c-5.5-11.5-17-18.2-28.9-18.2zM602.1 292.3c-5.6 0-11.4 1.5-16.6 4.6l-228 138.2c-15.1 9.2-19.9 28.8-10.8 44 9.2 15.1 28.8 19.9 44 10.8l228.1-138.2c15.1-9.2 19.9-28.8 10.8-44-6.1-9.9-16.7-15.4-27.5-15.4z"  horiz-adv-x="1024" />

    
    </font>
</defs>
</svg>
